<svg xmlns="http://www.w3.org/2000/svg" xmlns:xlink="http://www.w3.org/1999/xlink" width="512" zoomAndPan="magnify" viewBox="0 0 384 383.999986" height="512" preserveAspectRatio="xMidYMid meet" version="1.0"><defs><g/></defs><path stroke-linecap="butt" transform="matrix(1.112619, 0, 0, 1.112619, 11.651675, 144.640126)" fill="none" stroke-linejoin="miter" d="M 88.990362 38.237221 C 90.636956 38.237221 91.458497 39.164088 91.458497 41.010801 C 91.458497 42.246623 91.037194 43.794912 90.198098 45.66269 C 89.359003 47.526956 88.151267 49.275364 86.578402 50.900892 C 85.002026 52.529931 83.193933 54.215144 81.157634 55.963552 C 79.117825 57.708449 76.737462 59.541118 74.016546 61.461558 C 71.292119 63.378488 68.286823 65.277863 64.997147 67.163195 C 61.710982 69.048526 58.217677 70.740761 54.517231 72.25043 C 46.333417 75.606812 38.402385 77.285003 30.731156 77.285003 C 24.875042 77.285003 19.752698 75.76129 15.367634 72.710353 C 10.778941 69.526003 8.482838 65.657036 8.482838 61.09994 C 8.482838 53.941297 12.337762 47.144272 20.044099 40.705356 C 26.690157 35.154687 34.515863 30.857394 43.524729 27.809968 C 49.005181 25.959745 53.643027 25.032878 57.445288 25.032878 C 60.527823 25.032878 63.132881 25.787713 65.256951 27.293872 C 67.517944 28.940465 68.64493 31.148796 68.64493 33.922375 C 68.64493 38.27233 65.204288 43.085719 58.319492 48.35903 C 57.224104 49.21568 56.23053 49.935406 55.338772 50.518209 L 53.49206 51.75052 C 50.065461 54.148438 44.858856 56.837756 37.872245 59.814965 C 40.027913 60.945462 42.043146 61.51071 43.907413 61.51071 C 45.77519 61.51071 47.453381 61.289526 48.941986 60.843647 C 50.434101 60.397768 52.119314 59.765813 54.004645 58.944272 C 55.886466 58.11922 57.9017 57.136179 60.039813 55.988128 C 62.181438 54.840077 64.347638 53.583189 66.538415 52.213954 C 71.439575 49.163017 75.684204 46.048884 79.282835 42.861024 C 81.164656 41.116126 83.562573 39.729337 86.473076 38.700655 C 87.435052 38.391699 88.274147 38.237221 88.990362 38.237221 Z M 32.321576 52.673877 L 35.147818 51.237935 C 36.074685 50.756947 36.896226 50.311068 37.615952 49.900297 C 44.532346 45.926004 48.471531 43.478935 49.429995 42.552068 C 50.391971 41.628712 50.869448 40.986225 50.869448 40.628117 C 50.869448 40.266498 50.767633 39.848706 50.560492 39.367718 C 50.356862 38.890241 50.083015 38.461916 49.738951 38.082744 C 48.91741 37.124279 48.043206 36.646802 47.11985 36.646802 C 46.196493 36.646802 45.174833 36.815323 44.061891 37.159387 C 42.948948 37.499941 41.828984 37.973907 40.698487 38.570753 C 39.56799 39.17111 38.479624 39.890836 37.433388 40.729932 C 36.390662 41.569027 35.474328 42.467807 34.687895 43.426272 C 32.872781 45.585451 31.963468 47.453228 31.963468 49.026093 C 31.963468 50.602469 32.082837 51.817227 32.321576 52.673877 Z M 108.538829 41.78319 C 106.228684 43.015501 104.027374 44.367182 101.938413 45.841744 C 99.849451 47.312794 97.999228 48.822463 96.387744 50.363731 C 94.77977 51.904998 93.975783 53.239125 93.975783 54.369622 C 93.975783 55.500119 94.881585 56.065367 96.696699 56.065367 C 97.96412 56.065367 99.814343 55.450967 102.247369 54.215144 L 113.394348 48.306367 C 115.451712 47.246087 117.284381 45.996221 118.892354 44.556769 L 122.540138 41.372419 C 125.141685 39.009611 127.866112 37.826451 130.709908 37.826451 C 132.180958 37.826451 133.65552 38.647992 135.12657 40.294585 C 136.601131 41.937668 137.338411 43.615858 137.338411 45.329158 C 137.338411 49.268343 135.726927 55.089348 132.507468 62.795685 L 140.726391 56.065367 L 157.683843 42.861024 C 159.498958 41.491788 161.005117 40.807171 162.20232 40.807171 C 164.807378 40.807171 166.106396 42.057037 166.106396 44.556769 C 166.106396 47.126718 164.428205 50.430437 161.071823 54.471437 C 159.498958 56.391877 157.30467 58.463284 154.495983 60.689169 L 126.033443 82.266913 C 124.151622 83.776583 122.659507 85.026449 121.564119 86.020022 C 117.042131 93.315588 112.692176 98.606454 108.514253 101.892619 C 102.450998 106.688453 96.833623 109.08637 91.662127 109.08637 C 89.334427 109.08637 87.431541 108.436861 85.96049 107.134332 C 84.622853 106.003835 83.95579 104.683752 83.95579 103.177593 C 83.95579 101.773249 84.331452 100.260069 85.086286 98.63103 C 85.841121 97.005502 86.848738 95.369441 88.116158 93.726359 C 89.383579 92.079766 90.823031 90.454238 92.434516 88.842753 C 94.042489 87.234779 95.755789 85.675958 97.570903 84.169799 C 102.366738 80.367538 105.775783 77.748437 107.794527 76.308984 L 112.8291 72.661201 C 114.816246 68.448169 116.529546 63.891073 117.968998 58.993424 C 111.35805 64.81794 104.318776 69.38908 96.851177 72.710353 C 93.119133 74.388544 90.019044 75.227639 87.55091 75.227639 C 85.086286 75.227639 82.825293 74.715054 80.77144 73.686372 C 78.714076 72.661201 76.951624 71.306009 75.480574 69.627818 C 72.429637 66.102915 70.905924 62.009252 70.905924 57.350342 C 70.905924 52.487801 72.738593 48.394139 76.40393 45.069354 C 81.919491 40.06989 89.727643 35.719935 99.831897 32.023 C 109.560489 28.424369 117.796966 26.626808 124.544839 26.626808 C 126.770724 26.626808 127.883666 27.722197 127.883666 29.916484 C 127.883666 31.422643 127.599287 32.577716 127.034038 33.381702 C 126.472301 34.1892 125.117109 34.968611 122.975484 35.719935 C 120.837371 36.47477 118.474562 37.363017 115.887059 38.391699 C 113.299555 39.420381 110.852486 40.550878 108.538829 41.78319 Z M 200.684853 53.189973 C 203.149477 57.094049 205.768578 59.046087 208.545668 59.046087 C 211.354356 59.046087 216.645221 56.476138 224.418265 51.33975 L 230.021597 47.537489 C 231.699788 46.336775 233.104132 45.301071 234.231117 44.430378 C 235.361614 43.556174 236.337633 42.811872 237.162685 42.19396 C 239.009398 40.754508 241.133468 40.034782 243.531385 40.034782 C 244.28622 40.034782 245.012968 40.259477 245.71514 40.705356 C 246.417312 41.147724 246.768397 41.758614 246.768397 42.527492 C 246.768397 43.299881 246.65605 44.068759 246.434866 44.841149 C 246.213682 45.610027 245.876639 46.406992 245.434271 47.228533 C 244.472295 49.180571 243.559472 50.655132 242.685268 51.648705 C 241.811064 52.642279 240.877175 53.632341 239.883602 54.625915 C 238.890028 55.619488 237.682293 56.767539 236.263905 58.070068 C 234.842007 59.372597 233.212968 60.783962 231.380299 62.307676 C 229.547631 63.831389 227.588571 65.34808 225.499609 66.854239 C 223.410648 68.360398 221.209339 69.817404 218.895682 71.221748 C 216.585537 72.626092 214.212195 73.858404 211.782681 74.922194 C 206.368935 77.285003 201.506394 78.464652 197.191548 78.464652 C 192.430822 78.464652 188.523235 75.863105 185.475809 70.6565 C 184.58405 69.115233 183.762509 67.507259 183.011185 65.829068 L 167.082415 77.23234 C 164.547574 79.219487 162.272537 80.21306 160.250282 80.21306 C 159.154894 80.21306 158.210472 79.904104 157.42404 79.289704 C 155.917881 78.124099 155.163046 76.874232 155.163046 75.536595 C 155.163046 74.202468 155.412317 73.198362 155.907348 72.531299 C 156.40589 71.864236 157.048378 71.18664 157.83481 70.502022 L 178.078427 53.084647 C 176.53716 49.489527 174.978338 47.691967 173.401962 47.691967 C 171.109371 47.691967 168.77816 48.650431 166.415351 50.567361 L 164.154358 52.364921 C 160.934899 55.005087 158.073549 56.32166 155.573817 56.32166 C 154.580243 56.32166 153.674442 56.012704 152.8529 55.398304 C 151.241416 54.19759 150.437429 52.8108 150.437429 51.237935 C 150.437429 49.661559 152.168283 47.435674 155.62648 44.556769 L 157.63118 42.861024 C 158.519428 42.039482 159.428741 41.235496 160.352097 40.445552 L 170.884676 31.868522 C 175.954357 27.929337 180.114726 25.959745 183.369293 25.959745 C 186.213089 25.959745 188.986668 28.71577 191.693541 34.23133 C 192.479974 35.839304 193.269917 37.535049 194.05635 39.318566 L 203.511095 31.197948 C 208.988036 26.574145 213.099253 24.264 215.841234 24.264 C 217.930196 24.264 219.847125 24.8784 221.595533 26.114223 C 224.846589 28.406814 226.475628 30.601102 226.475628 32.690063 C 226.475628 33.989081 225.927934 34.968611 224.832546 35.61812 C 224.625405 35.719935 224.267298 35.958673 223.751201 36.337846 L 212.140788 44.967539 Z M 290.798089 44.353139 C 290.798089 46.199851 292.374465 47.126718 295.523706 47.126718 C 297.854917 47.126718 300.902343 45.996221 304.669496 43.735228 L 308.780712 41.474234 C 310.048133 40.754508 311.150543 40.3964 312.094964 40.3964 C 313.035874 40.3964 313.780177 40.687801 314.327871 41.270604 C 314.875565 41.849896 315.149412 42.657394 315.149412 43.682565 C 315.149412 44.711247 314.808859 45.901428 314.124241 47.253109 C 313.439623 48.608301 312.495202 50.030199 311.297999 51.518804 C 310.097285 53.007408 308.692941 54.481969 307.084967 55.938976 C 305.473483 57.392472 303.74614 58.702023 301.895917 59.867628 C 297.7847 62.437577 293.964885 63.722552 290.439981 63.722552 C 286.704427 63.722552 283.723707 63.087086 281.497822 61.819666 C 280.813204 61.408895 280.146141 60.980571 279.496632 60.534691 C 275.831294 64.712614 270.522874 68.549984 263.567861 72.043289 C 256.17048 75.743736 249.714009 77.593959 244.198448 77.593959 C 238.409041 77.593959 233.837901 75.315411 230.481519 70.758315 C 227.774646 67.06138 226.422966 63.308271 226.422966 59.50952 C 226.422966 54.029068 229.351022 48.804909 235.207136 43.837043 C 239.521983 40.206814 243.692884 37.450789 247.71984 35.565457 C 251.743286 33.683636 255.380536 32.22663 258.635103 31.197948 C 265.519899 29.04228 271.720077 27.960935 277.235638 27.960935 C 279.700262 27.960935 281.901571 28.434901 283.836054 29.375812 C 285.770538 30.316722 287.202969 31.268165 288.126325 32.22663 C 290.317101 34.385808 291.416 37.141833 291.416 40.498215 C 291.416 41.491788 291.310675 42.264177 291.107045 42.811872 C 290.899904 43.359566 290.798089 43.872151 290.798089 44.353139 Z M 248.773098 54.060666 L 248.720435 54.215144 L 248.720435 54.267807 C 248.720435 55.738857 249.046945 56.700833 249.696454 57.143201 C 251.27283 58.105176 252.933467 58.350937 254.678364 57.891014 C 256.426773 57.427581 258.087409 56.8518 259.663785 56.167182 C 263.567861 54.488991 267.096275 52.364921 270.245516 49.798482 C 269.697822 48.703094 269.423975 47.572597 269.423975 46.406992 C 269.423975 43.942368 270.50532 41.474234 272.660988 39.009611 C 269.922517 39.009611 266.222071 40.294585 261.56316 42.861024 C 256.426773 45.70482 252.571849 48.632877 250.00541 51.648705 C 249.183869 52.673877 248.773098 53.481374 248.773098 54.060666 Z M 248.773098 54.060666 " stroke="#000000" stroke-width="3.814297" stroke-opacity="1" stroke-miterlimit="4"/><g fill="#ffde59" fill-opacity="1"><g transform="translate(31.609282, 229.199187)"><g><path d="M 79.046875 -42.015625 C 80.878906 -42.015625 81.796875 -40.984375 81.796875 -38.921875 C 81.796875 -37.554688 81.328125 -35.832031 80.390625 -33.75 C 79.460938 -31.675781 78.117188 -29.734375 76.359375 -27.921875 C 74.609375 -26.109375 72.597656 -24.226562 70.328125 -22.28125 C 68.066406 -20.34375 65.421875 -18.304688 62.390625 -16.171875 C 59.359375 -14.035156 56.015625 -11.921875 52.359375 -9.828125 C 48.703125 -7.734375 44.816406 -5.847656 40.703125 -4.171875 C 31.585938 -0.441406 22.765625 1.421875 14.234375 1.421875 C 7.710938 1.421875 2.015625 -0.269531 -2.859375 -3.65625 C -7.960938 -7.195312 -10.515625 -11.503906 -10.515625 -16.578125 C -10.515625 -24.535156 -6.226562 -32.097656 2.34375 -39.265625 C 9.738281 -45.441406 18.445312 -50.222656 28.46875 -53.609375 C 34.5625 -55.671875 39.722656 -56.703125 43.953125 -56.703125 C 47.378906 -56.703125 50.273438 -55.863281 52.640625 -54.1875 C 55.160156 -52.351562 56.421875 -49.894531 56.421875 -46.8125 C 56.421875 -41.96875 52.585938 -36.613281 44.921875 -30.75 C 43.703125 -29.800781 42.597656 -29 41.609375 -28.34375 L 39.546875 -26.984375 C 35.742188 -24.316406 29.953125 -21.320312 22.171875 -18 C 24.578125 -16.75 26.816406 -16.125 28.890625 -16.125 C 30.972656 -16.125 32.84375 -16.367188 34.5 -16.859375 C 36.15625 -17.359375 38.03125 -18.0625 40.125 -18.96875 C 42.21875 -19.882812 44.457031 -20.976562 46.84375 -22.25 C 49.226562 -23.53125 51.640625 -24.9375 54.078125 -26.46875 C 59.523438 -29.851562 64.25 -33.320312 68.25 -36.875 C 70.34375 -38.8125 73.007812 -40.351562 76.25 -41.5 C 77.3125 -41.84375 78.242188 -42.015625 79.046875 -42.015625 Z M 16 -25.953125 L 19.140625 -27.546875 C 20.171875 -28.078125 21.085938 -28.570312 21.890625 -29.03125 C 29.585938 -33.457031 33.96875 -36.179688 35.03125 -37.203125 C 36.101562 -38.234375 36.640625 -38.945312 36.640625 -39.34375 C 36.640625 -39.75 36.523438 -40.21875 36.296875 -40.75 C 36.066406 -41.289062 35.757812 -41.769531 35.375 -42.1875 C 34.46875 -43.25 33.5 -43.78125 32.46875 -43.78125 C 31.4375 -43.78125 30.300781 -43.585938 29.0625 -43.203125 C 27.820312 -42.828125 26.570312 -42.304688 25.3125 -41.640625 C 24.0625 -40.972656 22.851562 -40.171875 21.6875 -39.234375 C 20.53125 -38.304688 19.515625 -37.304688 18.640625 -36.234375 C 16.617188 -33.835938 15.609375 -31.757812 15.609375 -30 C 15.609375 -28.25 15.738281 -26.898438 16 -25.953125 Z M 16 -25.953125 "/></g></g></g><g fill="#ffde59" fill-opacity="1"><g transform="translate(99.632427, 229.199187)"><g><path d="M 32.78125 -38.0625 C 30.207031 -36.695312 27.757812 -35.191406 25.4375 -33.546875 C 23.113281 -31.910156 21.054688 -30.234375 19.265625 -28.515625 C 17.472656 -26.804688 16.578125 -25.320312 16.578125 -24.0625 C 16.578125 -22.800781 17.585938 -22.171875 19.609375 -22.171875 C 21.015625 -22.171875 23.070312 -22.859375 25.78125 -24.234375 L 38.1875 -30.8125 C 40.46875 -31.988281 42.503906 -33.378906 44.296875 -34.984375 L 48.359375 -38.53125 C 51.253906 -41.15625 54.28125 -42.46875 57.4375 -42.46875 C 59.082031 -42.46875 60.722656 -41.550781 62.359375 -39.71875 C 63.992188 -37.894531 64.8125 -36.03125 64.8125 -34.125 C 64.8125 -29.738281 63.023438 -23.257812 59.453125 -14.6875 L 68.59375 -22.171875 L 87.453125 -36.875 C 89.472656 -38.394531 91.148438 -39.15625 92.484375 -39.15625 C 95.378906 -39.15625 96.828125 -37.765625 96.828125 -34.984375 C 96.828125 -32.117188 94.957031 -28.441406 91.21875 -23.953125 C 89.46875 -21.816406 87.03125 -19.507812 83.90625 -17.03125 L 52.25 6.96875 C 50.144531 8.644531 48.484375 10.035156 47.265625 11.140625 C 42.234375 19.265625 37.394531 25.15625 32.75 28.8125 C 26.007812 34.144531 19.757812 36.8125 14 36.8125 C 11.414062 36.8125 9.300781 36.085938 7.65625 34.640625 C 6.175781 33.378906 5.4375 31.910156 5.4375 30.234375 C 5.4375 28.671875 5.851562 26.984375 6.6875 25.171875 C 7.519531 23.367188 8.640625 21.550781 10.046875 19.71875 C 11.460938 17.882812 13.066406 16.070312 14.859375 14.28125 C 16.648438 12.5 18.554688 10.769531 20.578125 9.09375 C 25.910156 4.863281 29.703125 1.945312 31.953125 0.34375 L 37.546875 -3.71875 C 39.765625 -8.40625 41.671875 -13.472656 43.265625 -18.921875 C 35.910156 -12.441406 28.082031 -7.351562 19.78125 -3.65625 C 15.625 -1.789062 12.171875 -0.859375 9.421875 -0.859375 C 6.679688 -0.859375 4.164062 -1.425781 1.875 -2.5625 C -0.40625 -3.707031 -2.363281 -5.21875 -4 -7.09375 C -7.394531 -11.007812 -9.09375 -15.5625 -9.09375 -20.75 C -9.09375 -26.15625 -7.050781 -30.707031 -2.96875 -34.40625 C 3.164062 -39.96875 11.851562 -44.804688 23.09375 -48.921875 C 33.914062 -52.929688 43.082031 -54.9375 50.59375 -54.9375 C 53.0625 -54.9375 54.296875 -53.710938 54.296875 -51.265625 C 54.296875 -49.585938 53.984375 -48.300781 53.359375 -47.40625 C 52.734375 -46.519531 51.226562 -45.65625 48.84375 -44.8125 C 46.457031 -43.976562 43.828125 -42.988281 40.953125 -41.84375 C 38.078125 -40.695312 35.351562 -39.4375 32.78125 -38.0625 Z M 32.78125 -38.0625 "/></g></g></g><g fill="#ffde59" fill-opacity="1"><g transform="translate(187.090756, 229.199187)"><g><path d="M 47.84375 -25.375 C 50.582031 -21.03125 53.5 -18.859375 56.59375 -18.859375 C 59.71875 -18.859375 65.601562 -21.71875 74.25 -27.4375 L 80.484375 -31.671875 C 82.347656 -33.003906 83.90625 -34.15625 85.15625 -35.125 C 86.414062 -36.09375 87.503906 -36.921875 88.421875 -37.609375 C 90.484375 -39.210938 92.847656 -40.015625 95.515625 -40.015625 C 96.347656 -40.015625 97.15625 -39.765625 97.9375 -39.265625 C 98.71875 -38.773438 99.109375 -38.097656 99.109375 -37.234375 C 99.109375 -36.378906 98.984375 -35.519531 98.734375 -34.65625 C 98.492188 -33.800781 98.125 -32.921875 97.625 -32.015625 C 96.5625 -29.835938 95.539062 -28.195312 94.5625 -27.09375 C 93.59375 -25.988281 92.554688 -24.882812 91.453125 -23.78125 C 90.347656 -22.675781 89.003906 -21.398438 87.421875 -19.953125 C 85.835938 -18.503906 84.023438 -16.929688 81.984375 -15.234375 C 79.953125 -13.535156 77.773438 -11.847656 75.453125 -10.171875 C 73.128906 -8.492188 70.679688 -6.875 68.109375 -5.3125 C 65.535156 -3.75 62.894531 -2.378906 60.1875 -1.203125 C 54.164062 1.429688 48.753906 2.75 43.953125 2.75 C 38.660156 2.75 34.316406 -0.144531 30.921875 -5.9375 C 29.929688 -7.65625 29.015625 -9.445312 28.171875 -11.3125 L 10.453125 1.375 C 7.640625 3.582031 5.109375 4.6875 2.859375 4.6875 C 1.640625 4.6875 0.59375 4.34375 -0.28125 3.65625 C -1.957031 2.363281 -2.796875 0.972656 -2.796875 -0.515625 C -2.796875 -2.003906 -2.519531 -3.117188 -1.96875 -3.859375 C -1.414062 -4.597656 -0.703125 -5.347656 0.171875 -6.109375 L 22.6875 -25.5 C 20.976562 -29.5 19.242188 -31.5 17.484375 -31.5 C 14.929688 -31.5 12.34375 -30.429688 9.71875 -28.296875 L 7.203125 -26.296875 C 3.617188 -23.359375 0.4375 -21.890625 -2.34375 -21.890625 C -3.445312 -21.890625 -4.457031 -22.234375 -5.375 -22.921875 C -7.164062 -24.253906 -8.0625 -25.796875 -8.0625 -27.546875 C -8.0625 -29.304688 -6.132812 -31.785156 -2.28125 -34.984375 L -0.0625 -36.875 C 0.925781 -37.78125 1.9375 -38.671875 2.96875 -39.546875 L 14.6875 -49.09375 C 20.332031 -53.476562 24.960938 -55.671875 28.578125 -55.671875 C 31.742188 -55.671875 34.832031 -52.601562 37.84375 -46.46875 C 38.71875 -44.675781 39.59375 -42.789062 40.46875 -40.8125 L 50.984375 -49.84375 C 57.078125 -54.988281 61.648438 -57.5625 64.703125 -57.5625 C 67.023438 -57.5625 69.160156 -56.875 71.109375 -55.5 C 74.722656 -52.945312 76.53125 -50.507812 76.53125 -48.1875 C 76.53125 -46.738281 75.921875 -45.648438 74.703125 -44.921875 C 74.472656 -44.804688 74.070312 -44.539062 73.5 -44.125 L 60.59375 -34.53125 Z M 47.84375 -25.375 "/></g></g></g><g fill="#ffde59" fill-opacity="1"><g transform="translate(274.606247, 229.199187)"><g><path d="M 60.59375 -35.203125 C 60.59375 -33.148438 62.34375 -32.125 65.84375 -32.125 C 68.4375 -32.125 71.828125 -33.378906 76.015625 -35.890625 L 80.59375 -38.40625 C 82 -39.207031 83.226562 -39.609375 84.28125 -39.609375 C 85.332031 -39.609375 86.160156 -39.285156 86.765625 -38.640625 C 87.378906 -37.992188 87.6875 -37.097656 87.6875 -35.953125 C 87.6875 -34.804688 87.300781 -33.476562 86.53125 -31.96875 C 85.769531 -30.46875 84.722656 -28.890625 83.390625 -27.234375 C 82.054688 -25.578125 80.492188 -23.9375 78.703125 -22.3125 C 76.910156 -20.695312 74.988281 -19.242188 72.9375 -17.953125 C 68.363281 -15.085938 64.113281 -13.65625 60.1875 -13.65625 C 56.03125 -13.65625 52.71875 -14.363281 50.25 -15.78125 C 49.476562 -16.238281 48.734375 -16.710938 48.015625 -17.203125 C 43.929688 -12.554688 38.023438 -8.289062 30.296875 -4.40625 C 22.066406 -0.289062 14.882812 1.765625 8.75 1.765625 C 2.300781 1.765625 -2.785156 -0.765625 -6.515625 -5.828125 C -9.523438 -9.941406 -11.03125 -14.113281 -11.03125 -18.34375 C -11.03125 -24.445312 -7.769531 -30.257812 -1.25 -35.78125 C 3.539062 -39.820312 8.175781 -42.890625 12.65625 -44.984375 C 17.132812 -47.078125 21.1875 -48.695312 24.8125 -49.84375 C 32.46875 -52.238281 39.363281 -53.4375 45.5 -53.4375 C 48.238281 -53.4375 50.6875 -52.910156 52.84375 -51.859375 C 55 -50.816406 56.585938 -49.765625 57.609375 -48.703125 C 60.054688 -46.296875 61.28125 -43.226562 61.28125 -39.5 C 61.28125 -38.394531 61.164062 -37.535156 60.9375 -36.921875 C 60.707031 -36.316406 60.59375 -35.742188 60.59375 -35.203125 Z M 13.828125 -24.40625 L 13.78125 -24.234375 L 13.78125 -24.171875 C 13.78125 -22.535156 14.140625 -21.472656 14.859375 -20.984375 C 16.609375 -19.910156 18.457031 -19.628906 20.40625 -20.140625 C 22.351562 -20.660156 24.203125 -21.300781 25.953125 -22.0625 C 30.296875 -23.925781 34.21875 -26.289062 37.71875 -29.15625 C 37.113281 -30.375 36.8125 -31.628906 36.8125 -32.921875 C 36.8125 -35.671875 38.007812 -38.414062 40.40625 -41.15625 C 37.363281 -41.15625 33.25 -39.726562 28.0625 -36.875 C 22.34375 -33.707031 18.054688 -30.445312 15.203125 -27.09375 C 14.285156 -25.945312 13.828125 -25.050781 13.828125 -24.40625 Z M 13.828125 -24.40625 "/></g></g></g><path stroke-linecap="butt" transform="matrix(1.112619, 0, 0, 1.112619, 11.651675, 139.224131)" fill="none" stroke-linejoin="miter" d="M 88.990362 38.238959 C 90.636956 38.238959 91.458497 39.162315 91.458497 41.012538 C 91.458497 42.24485 91.037194 43.79665 90.198098 45.660916 C 89.359003 47.528694 88.151267 49.277102 86.578402 50.90263 C 85.002026 52.528158 83.193933 54.216881 81.157634 55.961779 C 79.117825 57.710187 76.737462 59.542855 74.016546 61.459785 C 71.292119 63.376714 68.286823 65.2796 64.997147 67.161421 C 61.710982 69.046753 58.217677 70.742498 54.517231 72.248657 C 46.333417 75.605039 38.402385 77.28323 30.731156 77.28323 C 24.875042 77.28323 19.752698 75.759516 15.367634 72.71209 C 10.778941 69.52774 8.482838 65.655262 8.482838 61.101677 C 8.482838 53.943034 12.337762 47.142499 20.044099 40.703582 C 26.690157 35.156424 34.515863 30.855621 43.524729 27.808195 C 49.005181 25.957972 53.643027 25.034615 57.445288 25.034615 C 60.527823 25.034615 63.132881 25.785939 65.256951 27.295609 C 67.517944 28.938691 68.64493 31.147022 68.64493 33.920601 C 68.64493 38.270557 65.204288 43.083945 58.319492 48.360767 C 57.224104 49.213906 56.23053 49.933632 55.338772 50.516435 L 53.49206 51.748747 C 50.065461 54.146664 44.858856 56.835983 37.872245 59.816703 C 40.027913 60.947199 42.043146 61.512448 43.907413 61.512448 C 45.77519 61.512448 47.453381 61.287753 48.941986 60.845384 C 50.434101 60.399505 52.119314 59.76404 54.004645 58.942498 C 55.886466 58.120957 57.9017 57.134406 60.039813 55.989865 C 62.181438 54.841814 64.347638 53.581416 66.538415 52.21218 C 71.439575 49.164754 75.684204 46.047111 79.282835 42.862761 C 81.164656 41.114353 83.562573 39.727563 86.473076 38.698881 C 87.435052 38.393437 88.274147 38.238959 88.990362 38.238959 Z M 32.321576 52.675614 L 35.147818 51.236161 C 36.074685 50.755174 36.896226 50.312805 37.615952 49.902035 C 44.532346 45.927742 48.471531 43.477161 49.429995 42.553805 C 50.391971 41.630449 50.869448 40.987962 50.869448 40.626343 C 50.869448 40.268236 50.767633 39.846933 50.560492 39.369456 C 50.356862 38.888468 50.083015 38.460143 49.738951 38.084481 C 48.91741 37.126016 48.043206 36.645029 47.11985 36.645029 C 46.196493 36.645029 45.174833 36.817061 44.061891 37.157614 C 42.948948 37.501678 41.828984 37.972133 40.698487 38.57249 C 39.56799 39.172847 38.479624 39.889063 37.433388 40.728158 C 36.390662 41.567254 35.474328 42.469545 34.687895 43.428009 C 32.872781 45.583677 31.963468 47.451455 31.963468 49.027831 C 31.963468 50.604207 32.082837 51.818964 32.321576 52.675614 Z M 108.538829 41.781416 C 106.228684 43.017239 104.027374 44.36892 101.938413 45.843481 C 99.849451 47.314531 97.999228 48.82069 96.387744 50.361957 C 94.77977 51.903225 93.975783 53.240862 93.975783 54.371359 C 93.975783 55.501856 94.881585 56.067104 96.696699 56.067104 C 97.96412 56.067104 99.814343 55.449193 102.247369 54.216881 L 113.394348 48.308104 C 115.451712 47.244314 117.284381 45.994448 118.892354 44.558506 L 122.540138 41.370646 C 125.141685 39.007837 127.866112 37.828188 130.709908 37.828188 C 132.180958 37.828188 133.65552 38.649729 135.12657 40.292812 C 136.601131 41.935894 137.338411 43.614085 137.338411 45.327385 C 137.338411 49.266569 135.726927 55.091085 132.507468 62.797422 L 140.726391 56.067104 L 157.683843 42.862761 C 159.498958 41.493526 161.005117 40.805397 162.20232 40.805397 C 164.807378 40.805397 166.106396 42.055263 166.106396 44.558506 C 166.106396 47.124945 164.428205 50.432175 161.071823 54.473174 C 159.498958 56.390103 157.30467 58.465022 154.495983 60.690907 L 126.033443 82.26865 C 124.151622 83.774809 122.659507 85.024675 121.564119 86.018249 C 117.042131 93.313815 112.692176 98.604681 108.514253 101.894356 C 102.450998 106.69019 96.833623 109.088108 91.662127 109.088108 C 89.334427 109.088108 87.431541 108.435088 85.96049 107.13607 C 84.622853 106.005573 83.95579 104.68549 83.95579 103.179331 C 83.95579 101.774987 84.331452 100.258295 85.086286 98.632767 C 85.841121 97.003729 86.848738 95.367668 88.116158 93.724586 C 89.383579 92.081503 90.823031 90.452464 92.434516 88.844491 C 94.042489 87.233006 95.755789 85.677695 97.570903 84.168025 C 102.366738 80.365764 105.775783 77.746663 107.794527 76.307211 L 112.8291 72.659427 C 114.816246 68.446396 116.529546 63.892811 117.968998 58.995161 C 111.35805 64.816167 104.318776 69.390817 96.851177 72.71209 C 93.119133 74.390281 90.019044 75.229377 87.55091 75.229377 C 85.086286 75.229377 82.825293 74.716791 80.77144 73.688109 C 78.714076 72.659427 76.951624 71.307746 75.480574 69.629555 C 72.429637 66.101141 70.905924 62.007479 70.905924 57.348568 C 70.905924 52.486027 72.738593 48.392365 76.40393 45.071092 C 81.919491 40.071628 89.727643 35.721672 99.831897 32.021226 C 109.560489 28.426106 117.796966 26.625035 124.544839 26.625035 C 126.770724 26.625035 127.883666 27.723934 127.883666 29.91471 C 127.883666 31.420869 127.599287 32.579453 127.034038 33.38344 C 126.472301 34.187427 125.117109 34.966838 122.975484 35.721672 C 120.837371 36.472996 118.474562 37.364755 115.887059 38.393437 C 113.299555 39.418608 110.852486 40.549104 108.538829 41.781416 Z M 200.684853 53.188199 C 203.149477 57.092275 205.768578 59.044313 208.545668 59.044313 C 211.354356 59.044313 216.645221 56.477875 224.418265 51.337976 L 230.021597 47.535715 C 231.699788 46.338512 233.104132 45.302809 234.231117 44.428604 C 235.361614 43.5544 236.337633 42.810098 237.162685 42.195698 C 239.009398 40.756245 241.133468 40.036519 243.531385 40.036519 C 244.28622 40.036519 245.012968 40.257703 245.71514 40.703582 C 246.417312 41.149462 246.768397 41.75684 246.768397 42.529229 C 246.768397 43.298108 246.65605 44.070497 246.434866 44.839375 C 246.213682 45.611764 245.876639 46.405218 245.434271 47.230271 C 244.472295 49.182309 243.559472 50.653359 242.685268 51.646932 C 241.811064 52.640505 240.877175 53.634079 239.883602 54.627652 C 238.890028 55.621225 237.682293 56.769276 236.263905 58.068294 C 234.842007 59.370823 233.212968 60.782189 231.380299 62.309413 C 229.547631 63.833126 227.588571 65.346307 225.499609 66.855976 C 223.410648 68.362135 221.209339 69.819142 218.895682 71.223486 C 216.585537 72.62783 214.212195 73.860141 211.782681 74.920421 C 206.368935 77.28323 201.506394 78.466389 197.191548 78.466389 C 192.430822 78.466389 188.523235 75.861331 185.475809 70.658237 C 184.58405 69.11697 183.762509 67.505485 183.011185 65.827294 L 167.082415 77.234078 C 164.547574 79.221224 162.272537 80.211287 160.250282 80.211287 C 159.154894 80.211287 158.210472 79.905842 157.42404 79.28793 C 155.917881 78.122325 155.163046 76.872459 155.163046 75.538332 C 155.163046 74.200695 155.412317 73.2001 155.907348 72.533036 C 156.40589 71.862462 157.048378 71.188377 157.83481 70.503759 L 178.078427 53.086384 C 176.53716 49.487753 174.978338 47.690193 173.401962 47.690193 C 171.109371 47.690193 168.77816 48.648658 166.415351 50.569098 L 164.154358 52.366658 C 160.934899 55.003314 158.073549 56.323397 155.573817 56.323397 C 154.580243 56.323397 153.674442 56.014441 152.8529 55.39653 C 151.241416 54.199327 150.437429 52.812537 150.437429 51.236161 C 150.437429 49.659785 152.168283 47.4339 155.62648 44.558506 L 157.63118 42.862761 C 158.519428 42.04122 159.428741 41.233722 160.352097 40.44729 L 170.884676 31.866748 C 175.954357 27.927564 180.114726 25.957972 183.369293 25.957972 C 186.213089 25.957972 188.986668 28.717507 191.693541 34.229557 C 192.479974 35.841042 193.269917 37.536787 194.05635 39.316793 L 203.511095 31.199685 C 208.988036 26.575883 213.099253 24.262226 215.841234 24.262226 C 217.930196 24.262226 219.847125 24.880138 221.595533 26.112449 C 224.846589 28.408552 226.475628 30.599328 226.475628 32.68829 C 226.475628 33.990819 225.927934 34.966838 224.832546 35.616347 C 224.625405 35.721672 224.267298 35.960411 223.751201 36.336073 L 212.140788 44.969277 Z M 290.798089 44.351366 C 290.798089 46.201589 292.374465 47.124945 295.523706 47.124945 C 297.854917 47.124945 300.902343 45.994448 304.669496 43.736965 L 308.780712 41.475971 C 310.048133 40.756245 311.150543 40.394627 312.094964 40.394627 C 313.035874 40.394627 313.780177 40.686028 314.327871 41.268831 C 314.875565 41.851633 315.149412 42.65562 315.149412 43.684302 C 315.149412 44.712984 314.808859 45.903166 314.124241 47.254847 C 313.439623 48.606528 312.495202 50.028426 311.297999 51.520541 C 310.097285 53.009146 308.692941 54.480196 307.084967 55.937203 C 305.473483 57.394209 303.74614 58.70376 301.895917 59.869365 C 297.7847 62.435804 293.964885 63.720779 290.439981 63.720779 C 286.704427 63.720779 283.723707 63.088824 281.497822 61.821403 C 280.813204 61.410633 280.146141 60.982308 279.496632 60.536429 C 275.831294 64.714352 270.522874 68.551721 263.567861 72.045027 C 256.17048 75.741962 249.714009 77.592185 244.198448 77.592185 C 238.409041 77.592185 233.837901 75.313637 230.481519 70.760052 C 227.774646 67.059606 226.422966 63.310008 226.422966 59.507747 C 226.422966 54.027295 229.351022 48.803136 235.207136 43.83878 C 239.521983 40.208551 243.692884 37.449015 247.71984 35.567195 C 251.743286 33.681863 255.380536 32.228367 258.635103 31.199685 C 265.519899 29.040506 271.720077 27.962672 277.235638 27.962672 C 279.700262 27.962672 281.901571 28.433128 283.836054 29.374038 C 285.770538 30.318459 287.202969 31.266391 288.126325 32.228367 C 290.317101 34.384035 291.416 37.143571 291.416 40.499952 C 291.416 41.493526 291.310675 42.262404 291.107045 42.810098 C 290.899904 43.357792 290.798089 43.873889 290.798089 44.351366 Z M 248.773098 54.062403 L 248.720435 54.216881 L 248.720435 54.266033 C 248.720435 55.740594 249.046945 56.699059 249.696454 57.144938 C 251.27283 58.103403 252.933467 58.352674 254.678364 57.889241 C 256.426773 57.425807 258.087409 56.853537 259.663785 56.168919 C 263.567861 54.490728 267.096275 52.366658 270.245516 49.796709 C 269.697822 48.701321 269.423975 47.570824 269.423975 46.405218 C 269.423975 43.940595 270.50532 41.475971 272.660988 39.007837 C 269.922517 39.007837 266.222071 40.292812 261.56316 42.862761 C 256.426773 45.703047 252.571849 48.634614 250.00541 51.646932 C 249.183869 52.675614 248.773098 53.479601 248.773098 54.062403 Z M 248.773098 54.062403 " stroke="#000000" stroke-width="3.814297" stroke-opacity="1" stroke-miterlimit="4"/><g fill="#00ceff" fill-opacity="1"><g transform="translate(31.609282, 223.783192)"><g><path d="M 79.046875 -42.015625 C 80.878906 -42.015625 81.796875 -40.984375 81.796875 -38.921875 C 81.796875 -37.554688 81.328125 -35.832031 80.390625 -33.75 C 79.460938 -31.675781 78.117188 -29.734375 76.359375 -27.921875 C 74.609375 -26.109375 72.597656 -24.226562 70.328125 -22.28125 C 68.066406 -20.34375 65.421875 -18.304688 62.390625 -16.171875 C 59.359375 -14.035156 56.015625 -11.921875 52.359375 -9.828125 C 48.703125 -7.734375 44.816406 -5.847656 40.703125 -4.171875 C 31.585938 -0.441406 22.765625 1.421875 14.234375 1.421875 C 7.710938 1.421875 2.015625 -0.269531 -2.859375 -3.65625 C -7.960938 -7.195312 -10.515625 -11.503906 -10.515625 -16.578125 C -10.515625 -24.535156 -6.226562 -32.097656 2.34375 -39.265625 C 9.738281 -45.441406 18.445312 -50.222656 28.46875 -53.609375 C 34.5625 -55.671875 39.722656 -56.703125 43.953125 -56.703125 C 47.378906 -56.703125 50.273438 -55.863281 52.640625 -54.1875 C 55.160156 -52.351562 56.421875 -49.894531 56.421875 -46.8125 C 56.421875 -41.96875 52.585938 -36.613281 44.921875 -30.75 C 43.703125 -29.800781 42.597656 -29 41.609375 -28.34375 L 39.546875 -26.984375 C 35.742188 -24.316406 29.953125 -21.320312 22.171875 -18 C 24.578125 -16.75 26.816406 -16.125 28.890625 -16.125 C 30.972656 -16.125 32.84375 -16.367188 34.5 -16.859375 C 36.15625 -17.359375 38.03125 -18.0625 40.125 -18.96875 C 42.21875 -19.882812 44.457031 -20.976562 46.84375 -22.25 C 49.226562 -23.53125 51.640625 -24.9375 54.078125 -26.46875 C 59.523438 -29.851562 64.25 -33.320312 68.25 -36.875 C 70.34375 -38.8125 73.007812 -40.351562 76.25 -41.5 C 77.3125 -41.84375 78.242188 -42.015625 79.046875 -42.015625 Z M 16 -25.953125 L 19.140625 -27.546875 C 20.171875 -28.078125 21.085938 -28.570312 21.890625 -29.03125 C 29.585938 -33.457031 33.96875 -36.179688 35.03125 -37.203125 C 36.101562 -38.234375 36.640625 -38.945312 36.640625 -39.34375 C 36.640625 -39.75 36.523438 -40.21875 36.296875 -40.75 C 36.066406 -41.289062 35.757812 -41.769531 35.375 -42.1875 C 34.46875 -43.25 33.5 -43.78125 32.46875 -43.78125 C 31.4375 -43.78125 30.300781 -43.585938 29.0625 -43.203125 C 27.820312 -42.828125 26.570312 -42.304688 25.3125 -41.640625 C 24.0625 -40.972656 22.851562 -40.171875 21.6875 -39.234375 C 20.53125 -38.304688 19.515625 -37.304688 18.640625 -36.234375 C 16.617188 -33.835938 15.609375 -31.757812 15.609375 -30 C 15.609375 -28.25 15.738281 -26.898438 16 -25.953125 Z M 16 -25.953125 "/></g></g></g><g fill="#00ceff" fill-opacity="1"><g transform="translate(99.632427, 223.783192)"><g><path d="M 32.78125 -38.0625 C 30.207031 -36.695312 27.757812 -35.191406 25.4375 -33.546875 C 23.113281 -31.910156 21.054688 -30.234375 19.265625 -28.515625 C 17.472656 -26.804688 16.578125 -25.320312 16.578125 -24.0625 C 16.578125 -22.800781 17.585938 -22.171875 19.609375 -22.171875 C 21.015625 -22.171875 23.070312 -22.859375 25.78125 -24.234375 L 38.1875 -30.8125 C 40.46875 -31.988281 42.503906 -33.378906 44.296875 -34.984375 L 48.359375 -38.53125 C 51.253906 -41.15625 54.28125 -42.46875 57.4375 -42.46875 C 59.082031 -42.46875 60.722656 -41.550781 62.359375 -39.71875 C 63.992188 -37.894531 64.8125 -36.03125 64.8125 -34.125 C 64.8125 -29.738281 63.023438 -23.257812 59.453125 -14.6875 L 68.59375 -22.171875 L 87.453125 -36.875 C 89.472656 -38.394531 91.148438 -39.15625 92.484375 -39.15625 C 95.378906 -39.15625 96.828125 -37.765625 96.828125 -34.984375 C 96.828125 -32.117188 94.957031 -28.441406 91.21875 -23.953125 C 89.46875 -21.816406 87.03125 -19.507812 83.90625 -17.03125 L 52.25 6.96875 C 50.144531 8.644531 48.484375 10.035156 47.265625 11.140625 C 42.234375 19.265625 37.394531 25.15625 32.75 28.8125 C 26.007812 34.144531 19.757812 36.8125 14 36.8125 C 11.414062 36.8125 9.300781 36.085938 7.65625 34.640625 C 6.175781 33.378906 5.4375 31.910156 5.4375 30.234375 C 5.4375 28.671875 5.851562 26.984375 6.6875 25.171875 C 7.519531 23.367188 8.640625 21.550781 10.046875 19.71875 C 11.460938 17.882812 13.066406 16.070312 14.859375 14.28125 C 16.648438 12.5 18.554688 10.769531 20.578125 9.09375 C 25.910156 4.863281 29.703125 1.945312 31.953125 0.34375 L 37.546875 -3.71875 C 39.765625 -8.40625 41.671875 -13.472656 43.265625 -18.921875 C 35.910156 -12.441406 28.082031 -7.351562 19.78125 -3.65625 C 15.625 -1.789062 12.171875 -0.859375 9.421875 -0.859375 C 6.679688 -0.859375 4.164062 -1.425781 1.875 -2.5625 C -0.40625 -3.707031 -2.363281 -5.21875 -4 -7.09375 C -7.394531 -11.007812 -9.09375 -15.5625 -9.09375 -20.75 C -9.09375 -26.15625 -7.050781 -30.707031 -2.96875 -34.40625 C 3.164062 -39.96875 11.851562 -44.804688 23.09375 -48.921875 C 33.914062 -52.929688 43.082031 -54.9375 50.59375 -54.9375 C 53.0625 -54.9375 54.296875 -53.710938 54.296875 -51.265625 C 54.296875 -49.585938 53.984375 -48.300781 53.359375 -47.40625 C 52.734375 -46.519531 51.226562 -45.65625 48.84375 -44.8125 C 46.457031 -43.976562 43.828125 -42.988281 40.953125 -41.84375 C 38.078125 -40.695312 35.351562 -39.4375 32.78125 -38.0625 Z M 32.78125 -38.0625 "/></g></g></g><g fill="#00ceff" fill-opacity="1"><g transform="translate(187.090756, 223.783192)"><g><path d="M 47.84375 -25.375 C 50.582031 -21.03125 53.5 -18.859375 56.59375 -18.859375 C 59.71875 -18.859375 65.601562 -21.71875 74.25 -27.4375 L 80.484375 -31.671875 C 82.347656 -33.003906 83.90625 -34.15625 85.15625 -35.125 C 86.414062 -36.09375 87.503906 -36.921875 88.421875 -37.609375 C 90.484375 -39.210938 92.847656 -40.015625 95.515625 -40.015625 C 96.347656 -40.015625 97.15625 -39.765625 97.9375 -39.265625 C 98.71875 -38.773438 99.109375 -38.097656 99.109375 -37.234375 C 99.109375 -36.378906 98.984375 -35.519531 98.734375 -34.65625 C 98.492188 -33.800781 98.125 -32.921875 97.625 -32.015625 C 96.5625 -29.835938 95.539062 -28.195312 94.5625 -27.09375 C 93.59375 -25.988281 92.554688 -24.882812 91.453125 -23.78125 C 90.347656 -22.675781 89.003906 -21.398438 87.421875 -19.953125 C 85.835938 -18.503906 84.023438 -16.929688 81.984375 -15.234375 C 79.953125 -13.535156 77.773438 -11.847656 75.453125 -10.171875 C 73.128906 -8.492188 70.679688 -6.875 68.109375 -5.3125 C 65.535156 -3.75 62.894531 -2.378906 60.1875 -1.203125 C 54.164062 1.429688 48.753906 2.75 43.953125 2.75 C 38.660156 2.75 34.316406 -0.144531 30.921875 -5.9375 C 29.929688 -7.65625 29.015625 -9.445312 28.171875 -11.3125 L 10.453125 1.375 C 7.640625 3.582031 5.109375 4.6875 2.859375 4.6875 C 1.640625 4.6875 0.59375 4.34375 -0.28125 3.65625 C -1.957031 2.363281 -2.796875 0.972656 -2.796875 -0.515625 C -2.796875 -2.003906 -2.519531 -3.117188 -1.96875 -3.859375 C -1.414062 -4.597656 -0.703125 -5.347656 0.171875 -6.109375 L 22.6875 -25.5 C 20.976562 -29.5 19.242188 -31.5 17.484375 -31.5 C 14.929688 -31.5 12.34375 -30.429688 9.71875 -28.296875 L 7.203125 -26.296875 C 3.617188 -23.359375 0.4375 -21.890625 -2.34375 -21.890625 C -3.445312 -21.890625 -4.457031 -22.234375 -5.375 -22.921875 C -7.164062 -24.253906 -8.0625 -25.796875 -8.0625 -27.546875 C -8.0625 -29.304688 -6.132812 -31.785156 -2.28125 -34.984375 L -0.0625 -36.875 C 0.925781 -37.78125 1.9375 -38.671875 2.96875 -39.546875 L 14.6875 -49.09375 C 20.332031 -53.476562 24.960938 -55.671875 28.578125 -55.671875 C 31.742188 -55.671875 34.832031 -52.601562 37.84375 -46.46875 C 38.71875 -44.675781 39.59375 -42.789062 40.46875 -40.8125 L 50.984375 -49.84375 C 57.078125 -54.988281 61.648438 -57.5625 64.703125 -57.5625 C 67.023438 -57.5625 69.160156 -56.875 71.109375 -55.5 C 74.722656 -52.945312 76.53125 -50.507812 76.53125 -48.1875 C 76.53125 -46.738281 75.921875 -45.648438 74.703125 -44.921875 C 74.472656 -44.804688 74.070312 -44.539062 73.5 -44.125 L 60.59375 -34.53125 Z M 47.84375 -25.375 "/></g></g></g><g fill="#00ceff" fill-opacity="1"><g transform="translate(274.606247, 223.783192)"><g><path d="M 60.59375 -35.203125 C 60.59375 -33.148438 62.34375 -32.125 65.84375 -32.125 C 68.4375 -32.125 71.828125 -33.378906 76.015625 -35.890625 L 80.59375 -38.40625 C 82 -39.207031 83.226562 -39.609375 84.28125 -39.609375 C 85.332031 -39.609375 86.160156 -39.285156 86.765625 -38.640625 C 87.378906 -37.992188 87.6875 -37.097656 87.6875 -35.953125 C 87.6875 -34.804688 87.300781 -33.476562 86.53125 -31.96875 C 85.769531 -30.46875 84.722656 -28.890625 83.390625 -27.234375 C 82.054688 -25.578125 80.492188 -23.9375 78.703125 -22.3125 C 76.910156 -20.695312 74.988281 -19.242188 72.9375 -17.953125 C 68.363281 -15.085938 64.113281 -13.65625 60.1875 -13.65625 C 56.03125 -13.65625 52.71875 -14.363281 50.25 -15.78125 C 49.476562 -16.238281 48.734375 -16.710938 48.015625 -17.203125 C 43.929688 -12.554688 38.023438 -8.289062 30.296875 -4.40625 C 22.066406 -0.289062 14.882812 1.765625 8.75 1.765625 C 2.300781 1.765625 -2.785156 -0.765625 -6.515625 -5.828125 C -9.523438 -9.941406 -11.03125 -14.113281 -11.03125 -18.34375 C -11.03125 -24.445312 -7.769531 -30.257812 -1.25 -35.78125 C 3.539062 -39.820312 8.175781 -42.890625 12.65625 -44.984375 C 17.132812 -47.078125 21.1875 -48.695312 24.8125 -49.84375 C 32.46875 -52.238281 39.363281 -53.4375 45.5 -53.4375 C 48.238281 -53.4375 50.6875 -52.910156 52.84375 -51.859375 C 55 -50.816406 56.585938 -49.765625 57.609375 -48.703125 C 60.054688 -46.296875 61.28125 -43.226562 61.28125 -39.5 C 61.28125 -38.394531 61.164062 -37.535156 60.9375 -36.921875 C 60.707031 -36.316406 60.59375 -35.742188 60.59375 -35.203125 Z M 13.828125 -24.40625 L 13.78125 -24.234375 L 13.78125 -24.171875 C 13.78125 -22.535156 14.140625 -21.472656 14.859375 -20.984375 C 16.609375 -19.910156 18.457031 -19.628906 20.40625 -20.140625 C 22.351562 -20.660156 24.203125 -21.300781 25.953125 -22.0625 C 30.296875 -23.925781 34.21875 -26.289062 37.71875 -29.15625 C 37.113281 -30.375 36.8125 -31.628906 36.8125 -32.921875 C 36.8125 -35.671875 38.007812 -38.414062 40.40625 -41.15625 C 37.363281 -41.15625 33.25 -39.726562 28.0625 -36.875 C 22.34375 -33.707031 18.054688 -30.445312 15.203125 -27.09375 C 14.285156 -25.945312 13.828125 -25.050781 13.828125 -24.40625 Z M 13.828125 -24.40625 "/></g></g></g></svg>