<?xml version="1.0" standalone="no"?>
<!DOCTYPE svg PUBLIC "-//W3C//DTD SVG 20010904//EN"
 "http://www.w3.org/TR/2001/REC-SVG-20010904/DTD/svg10.dtd">
<svg version="1.0" xmlns="http://www.w3.org/2000/svg"
 width="500.000000pt" height="500.000000pt" viewBox="0 0 500.000000 500.000000"
 preserveAspectRatio="xMidYMid meet">
<metadata>
Created by potrace 1.14, written by Peter Selinger 2001-2017
</metadata>
<g transform="translate(0.000000,500.000000) scale(0.100000,-0.100000)"
fill="#000000" stroke="none">
<path d="M2555 4540 c4 -6 11 -8 16 -5 14 9 11 15 -7 15 -8 0 -12 -5 -9 -10z"/>
<path d="M4245 4510 c-3 -5 -1 -10 4 -10 6 0 11 5 11 10 0 6 -2 10 -4 10 -3 0
-8 -4 -11 -10z"/>
<path d="M4610 4470 c0 -5 5 -10 11 -10 5 0 7 5 4 10 -3 6 -8 10 -11 10 -2 0
-4 -4 -4 -10z"/>
<path d="M2510 4444 c0 -8 5 -12 10 -9 6 3 10 10 10 16 0 5 -4 9 -10 9 -5 0
-10 -7 -10 -16z"/>
<path d="M4860 4420 c0 -5 5 -10 10 -10 6 0 10 5 10 10 0 6 -4 10 -10 10 -5 0
-10 -4 -10 -10z"/>
<path d="M2980 4385 c0 -5 5 -17 10 -25 5 -8 10 -10 10 -5 0 6 -5 17 -10 25
-5 8 -10 11 -10 5z"/>
<path d="M4234 4379 c-4 -7 -3 -9 4 -5 5 3 13 0 15 -6 4 -9 6 -10 6 -1 1 17
-16 25 -25 12z"/>
<path d="M3275 4370 c3 -5 8 -10 11 -10 2 0 4 5 4 10 0 6 -5 10 -11 10 -5 0
-7 -4 -4 -10z"/>
<path d="M4945 4370 c3 -5 8 -10 11 -10 2 0 4 5 4 10 0 6 -5 10 -11 10 -5 0
-7 -4 -4 -10z"/>
<path d="M3652 4343 c-6 -2 -10 -9 -7 -13 7 -11 35 -2 35 11 0 10 -8 10 -28 2z"/>
<path d="M4280 4340 c0 -5 7 -10 15 -10 8 0 15 5 15 10 0 6 -7 10 -15 10 -8 0
-15 -4 -15 -10z"/>
<path d="M4435 4340 c3 -5 8 -10 11 -10 2 0 4 5 4 10 0 6 -5 10 -11 10 -5 0
-7 -4 -4 -10z"/>
<path d="M2970 4331 c0 -5 5 -13 10 -16 6 -3 10 -2 10 4 0 5 -4 13 -10 16 -5
3 -10 2 -10 -4z"/>
<path d="M4105 4320 c-3 -6 1 -7 9 -4 18 7 21 14 7 14 -6 0 -13 -4 -16 -10z"/>
<path d="M4145 4310 c-3 -6 1 -7 9 -4 18 7 21 14 7 14 -6 0 -13 -4 -16 -10z"/>
<path d="M4531 4304 c0 -11 3 -14 6 -6 3 7 2 16 -1 19 -3 4 -6 -2 -5 -13z"/>
<path d="M3330 4300 c0 -5 5 -10 11 -10 5 0 7 5 4 10 -3 6 -8 10 -11 10 -2 0
-4 -4 -4 -10z"/>
<path d="M4567 4289 c-9 -6 -17 -17 -17 -24 0 -23 28 -18 35 6 9 26 4 30 -18
18z"/>
<path d="M3210 4281 c0 -6 5 -13 10 -16 6 -3 10 1 10 9 0 9 -4 16 -10 16 -5 0
-10 -4 -10 -9z"/>
<path d="M3900 4280 c0 -5 5 -10 10 -10 6 0 10 5 10 10 0 6 -4 10 -10 10 -5 0
-10 -4 -10 -10z"/>
<path d="M4296 4281 c-4 -7 -1 -9 8 -5 13 5 13 1 3 -25 -7 -19 -17 -29 -25
-26 -8 3 -12 -2 -10 -13 2 -13 -3 -17 -26 -15 -21 2 -26 -1 -18 -9 7 -7 8 -18
3 -27 -5 -9 -7 -23 -6 -33 2 -9 -6 -19 -19 -23 -19 -6 -19 -8 -3 -12 25 -6 18
-44 -10 -59 -15 -7 -19 -14 -12 -21 14 -14 -16 -38 -33 -27 -27 17 -38 12 -38
-17 0 -17 6 -32 15 -36 14 -5 14 -7 0 -23 -9 -10 -24 -32 -33 -49 -9 -17 -37
-52 -61 -77 -25 -25 -50 -55 -56 -67 -10 -21 -30 -25 -64 -16 -8 2 -16 -4 -18
-13 -3 -12 1 -15 17 -11 16 4 12 -3 -16 -31 -20 -20 -42 -36 -50 -36 -8 0 -14
-5 -14 -11 0 -5 5 -7 10 -4 6 3 10 2 10 -3 0 -21 -28 -20 -34 1 -4 18 -7 19
-18 8 -10 -11 -10 -14 0 -18 23 -9 12 -29 -15 -28 -20 0 -28 -5 -28 -17 0 -29
-15 -33 -53 -14 -20 10 -52 25 -69 34 -25 11 -33 22 -33 41 0 20 -3 22 -9 12
-8 -12 -12 -12 -25 -2 -21 17 -21 7 0 -13 8 -9 11 -16 6 -16 -5 0 -17 10 -28
21 -10 12 -37 30 -59 40 -22 10 -32 19 -22 19 10 0 15 5 12 10 -3 6 -1 10 6
10 18 0 5 10 -20 15 -12 2 -33 0 -47 -5 -17 -7 -23 -7 -19 0 3 6 12 10 19 10
17 0 41 28 32 37 -4 4 -12 1 -17 -7 -9 -13 -10 -12 -5 2 13 41 -31 27 -47 -15
-8 -22 -33 -17 -31 7 1 9 -4 16 -12 16 -8 0 -14 -4 -14 -10 0 -5 -7 -7 -15 -4
-8 4 -12 10 -9 15 3 5 2 19 -2 32 -7 21 -8 21 -20 -8 -11 -26 -13 -27 -14 -8
0 26 -40 54 -40 29 0 -10 6 -13 15 -10 8 4 15 1 15 -5 0 -16 -29 -13 -48 5
-15 15 -15 17 1 29 21 15 23 49 2 41 -8 -3 -18 2 -23 11 -6 11 -11 12 -16 4
-4 -6 -3 -11 3 -11 6 0 15 -8 20 -19 9 -15 7 -20 -12 -23 -19 -4 -23 0 -24 26
-1 31 23 59 42 49 5 -3 2 3 -8 13 -14 15 -21 16 -36 7 -19 -12 -31 -8 -31 9 0
5 4 7 9 4 5 -3 9 6 9 19 0 14 -5 28 -9 31 -5 3 -7 10 -4 15 4 5 1 9 -4 9 -6 0
-11 -6 -11 -14 0 -7 -7 -19 -15 -26 -12 -10 -15 -10 -15 1 -1 36 -17 43 -59
29 -23 -7 -44 -10 -48 -6 -12 12 16 29 46 28 35 -1 45 10 36 38 -5 16 -10 18
-26 9 -11 -5 -17 -14 -14 -18 3 -5 -2 -12 -11 -15 -14 -5 -15 -1 -10 29 4 21
3 35 -3 35 -6 0 -8 -7 -5 -15 4 -8 1 -15 -5 -15 -7 0 -11 -8 -9 -17 2 -11 -4
-18 -17 -20 -11 -1 -30 -5 -42 -9 -19 -5 -23 -2 -23 14 0 29 -27 36 -41 10 -9
-16 -13 -18 -19 -7 -5 7 -6 17 -3 23 3 5 1 6 -5 2 -7 -4 -9 -17 -6 -30 5 -22
3 -23 -33 -20 l-38 4 28 -16 c15 -8 32 -12 37 -9 6 3 10 1 10 -4 0 -10 -23
-15 -35 -8 -2 1 -11 -7 -20 -18 -15 -19 -16 -19 -11 -1 6 16 4 17 -9 6 -13
-11 -14 -10 -9 5 6 15 5 16 -14 4 -12 -8 -21 -18 -21 -24 3 -30 -2 -55 -11
-50 -5 3 -10 1 -10 -4 0 -6 4 -11 8 -11 15 0 0 -60 -14 -61 -8 -1 -20 -2 -26
-3 -14 -1 -21 -46 -7 -46 4 0 11 9 14 20 6 18 38 30 33 13 -1 -5 1 -25 5 -45
9 -43 33 -60 83 -60 19 0 34 -4 34 -9 0 -15 27 -10 33 5 9 22 45 7 61 -25 10
-20 11 -29 2 -33 -7 -3 -7 -5 2 -5 7 -1 10 -6 6 -13 -5 -7 -1 -9 13 -6 15 4
24 -1 32 -18 6 -15 7 -25 1 -29 -6 -4 -10 -18 -11 -33 0 -24 -1 -25 -9 -7 -8
19 -9 19 -9 1 -1 -20 -1 -20 -15 0 -8 10 -18 16 -22 12 -4 -5 1 -17 11 -28 10
-11 15 -23 12 -27 -4 -3 2 -13 14 -21 11 -8 18 -20 15 -28 -7 -19 18 -18 34 1
8 9 8 15 2 15 -6 0 -9 12 -8 27 2 21 11 30 39 39 29 10 36 10 41 -1 2 -7 -3
-16 -12 -19 -9 -4 -28 -13 -42 -21 -19 -11 -21 -15 -7 -15 21 0 22 -16 2 -27
-10 -6 -11 -13 -5 -23 8 -12 10 -12 10 4 0 16 3 17 12 8 17 -17 38 -15 38 3 0
16 30 17 41 2 8 -11 51 33 46 47 -3 7 -1 19 4 27 7 11 10 9 15 -9 5 -16 10
-20 19 -12 9 7 16 6 25 -5 11 -13 8 -15 -16 -15 -22 0 -33 -8 -46 -31 -14 -23
-23 -29 -38 -24 -12 4 -20 2 -20 -5 0 -6 3 -9 8 -7 4 3 16 -5 27 -16 l20 -20
-24 6 c-22 5 -22 5 -7 -11 9 -9 23 -26 31 -37 l14 -20 0 20 c-1 51 15 75 48
75 21 0 24 4 20 21 -4 14 -2 19 8 16 7 -3 17 -1 22 4 15 15 60 0 66 -21 3 -10
0 -24 -7 -31 -8 -9 -8 -10 1 -5 6 3 14 2 18 -4 3 -6 -5 -11 -19 -11 -38 -2
-44 -3 -52 -11 -4 -5 9 -8 29 -8 24 0 44 7 58 21 22 22 40 21 47 -1 3 -9 -1
-11 -12 -7 -12 5 -16 3 -13 -5 2 -7 16 -12 30 -12 15 1 27 -3 27 -7 0 -5 5 -9
11 -9 5 0 7 5 4 10 -10 16 8 11 33 -9 27 -23 27 -26 2 -28 -12 -1 -29 -11 -38
-22 -19 -21 -69 -41 -58 -22 4 6 5 11 2 11 -3 0 -11 -10 -17 -22 -10 -18 -8
-24 7 -35 21 -16 11 -17 -17 -2 -12 6 -18 17 -15 25 6 16 -10 19 -20 3 -4 -8
-9 -7 -15 2 -6 11 -11 11 -21 1 -9 -9 -9 -12 2 -12 9 0 7 -5 -6 -14 -16 -12
-17 -18 -8 -44 9 -23 9 -33 0 -43 -8 -9 -8 -10 3 -4 8 4 17 2 22 -6 7 -11 9
-11 9 -1 0 7 5 10 10 7 6 -3 10 -1 10 4 0 6 7 11 15 11 8 0 15 -7 15 -15 0 -8
-4 -15 -9 -15 -5 0 -13 -10 -16 -21 -5 -14 -10 -17 -14 -10 -5 8 -13 7 -27 -4
-24 -18 -35 -19 -28 -2 2 7 -4 13 -15 14 -12 1 -23 -6 -26 -18 -7 -22 -21 -25
-28 -6 -2 6 -8 9 -12 5 -15 -14 8 -28 41 -25 19 3 34 0 34 -4 0 -5 -4 -9 -10
-9 -5 0 -10 -10 -11 -22 l0 -23 -16 23 c-8 12 -21 22 -29 22 -18 0 -48 -32
-36 -39 14 -8 0 -76 -15 -76 -6 0 -15 -3 -19 -7 -12 -13 -32 11 -27 31 5 20
-12 37 -22 22 -3 -6 -12 -8 -21 -4 -12 4 -12 8 -2 21 11 13 10 14 -2 10 -8 -3
-23 -1 -32 4 -26 13 -24 -27 2 -49 25 -22 25 -41 0 -72 -16 -18 -27 -22 -52
-19 -25 4 -43 -2 -80 -27 -26 -18 -45 -35 -42 -38 3 -3 -4 -10 -15 -16 l-21
-12 25 -65 c29 -78 29 -74 11 -74 -8 0 -17 -4 -20 -9 -3 -5 2 -8 12 -7 17 1
19 -6 7 -35 -4 -10 0 -19 10 -23 23 -8 38 3 30 22 -4 12 1 10 17 -5 23 -21 68
-28 68 -10 0 5 7 7 15 3 8 -3 15 0 15 7 0 17 45 57 64 57 9 0 16 4 16 9 0 6
24 2 54 -9 30 -10 57 -16 60 -13 3 4 6 -1 6 -11 0 -9 -4 -15 -9 -12 -20 13
-22 -29 -2 -45 11 -9 17 -19 14 -23 -3 -3 -12 -1 -20 5 -10 9 -13 8 -13 -4 0
-17 21 -17 41 0 8 6 22 7 34 2 11 -4 14 -8 8 -8 -15 -1 -17 -27 -3 -36 6 -3
12 0 14 7 17 54 15 53 32 30 8 -12 19 -20 24 -17 5 3 19 1 31 -6 17 -9 20 -8
17 3 -3 7 -9 13 -14 13 -5 0 -18 9 -30 21 -16 16 -18 23 -8 32 18 16 27 15 20
-3 -3 -8 -3 -15 0 -15 9 0 41 35 46 50 3 10 6 8 10 -8 4 -15 2 -22 -7 -22 -11
0 -11 -6 1 -30 10 -19 17 -73 20 -157 2 -70 6 -176 9 -235 2 -60 2 -108 0
-108 -10 0 -52 49 -47 54 3 3 -1 6 -9 6 -7 0 -37 12 -66 27 -43 23 -51 32 -51
54 1 14 -2 31 -6 37 -3 6 -2 13 3 17 6 3 2 14 -10 26 -11 11 -17 24 -14 30 4
5 3 9 -2 8 -4 -1 -21 3 -36 9 -38 16 -92 15 -210 -3 -125 -19 -163 -36 -267
-124 -47 -39 -94 -71 -105 -71 -11 0 -49 -11 -86 -25 -88 -34 -103 -63 -74
-150 4 -15 -2 -29 -19 -48 -14 -16 -26 -31 -26 -36 0 -4 -8 -16 -18 -27 -82
-90 -130 -211 -105 -266 7 -17 7 -35 -3 -68 -18 -58 -17 -92 1 -132 8 -18 21
-67 30 -109 24 -114 90 -212 183 -272 39 -25 80 -55 91 -66 11 -11 37 -32 58
-46 21 -14 61 -42 88 -61 43 -30 77 -44 145 -60 8 -2 36 -10 62 -18 25 -8 48
-12 51 -10 2 3 13 6 23 8 11 3 64 14 119 26 55 12 117 24 137 27 20 3 49 17
65 32 15 15 44 38 64 53 38 28 94 122 120 203 19 57 17 59 59 -61 36 -102 82
-152 183 -201 89 -43 99 -54 110 -119 19 -113 32 -171 40 -182 14 -18 41 -15
61 7 15 16 16 35 11 152 -6 150 -7 146 65 194 24 17 100 85 169 153 68 67 126
120 128 118 3 -2 9 -36 14 -76 15 -106 46 -217 70 -251 26 -37 73 -62 100 -54
24 8 53 35 68 64 15 27 14 101 -3 132 -37 72 -43 211 -15 354 36 176 6 264
-103 309 -63 27 -120 27 -264 1 l-42 -7 3 123 c3 105 7 126 25 151 60 82 70
102 70 145 0 51 -21 98 -59 131 -43 39 -105 72 -140 75 l-33 2 -2 188 c-2 103
-6 190 -9 194 -4 3 0 14 9 24 13 14 14 26 6 63 -5 26 -6 46 -1 46 5 0 9 5 9
11 0 5 -4 8 -9 5 -5 -3 -11 3 -14 14 -3 10 0 21 7 23 8 3 8 8 0 18 -16 20 2
83 22 75 7 -3 14 -1 14 3 0 5 -7 11 -15 15 -19 7 -19 53 -1 72 19 18 30 18 22
-1 -4 -11 5 -21 29 -32 26 -12 35 -23 36 -42 0 -14 3 -38 5 -53 3 -16 0 -28
-6 -28 -5 0 -10 -4 -10 -10 0 -5 7 -7 16 -3 15 5 16 -2 12 -55 -2 -33 -1 -59
3 -56 4 2 6 -10 4 -28 -3 -18 -7 -58 -10 -88 -2 -30 -8 -84 -11 -120 -5 -52
-3 -68 9 -78 20 -17 50 11 42 39 -4 10 -2 19 4 19 15 0 18 42 5 70 -6 14 -10
34 -8 45 2 11 6 47 9 80 4 33 9 64 12 68 3 4 0 13 -5 20 -6 7 -12 44 -15 83
-2 39 -7 75 -10 81 -9 15 35 4 48 -11 19 -23 42 -24 74 -5 26 16 31 16 31 3 0
-8 5 -12 10 -9 6 3 10 -3 10 -13 0 -11 7 -25 15 -32 8 -7 12 -16 9 -21 -3 -5
-2 -9 3 -8 23 5 83 -40 83 -63 0 -4 5 -7 12 -5 6 1 22 -14 36 -33 14 -19 22
-27 19 -17 -4 11 -3 16 3 12 6 -3 10 -11 10 -16 0 -6 7 -17 15 -26 8 -8 13
-19 10 -24 -4 -5 4 -9 17 -9 13 0 30 -6 37 -12 10 -11 11 -10 6 5 -6 13 -2 17
16 19 43 2 48 3 55 11 5 4 14 -3 21 -15 8 -15 12 -17 13 -8 0 9 11 16 28 17
50 3 74 9 80 20 4 6 14 13 22 15 24 5 56 83 39 94 -5 3 -7 9 -5 13 3 4 -5 8
-16 8 -12 1 -24 7 -28 13 -4 7 -11 12 -16 13 -5 1 -8 10 -7 20 2 9 -2 17 -8
17 -13 0 -33 21 -37 38 -1 9 7 11 29 7 27 -5 30 -3 25 12 -6 16 -6 16 12 0 18
-16 20 -16 26 -2 11 29 7 36 -16 33 -15 -2 -23 2 -24 12 -4 56 -55 64 -59 10
-1 -13 4 -19 14 -18 8 2 17 -5 19 -14 2 -11 -3 -18 -12 -18 -9 0 -16 4 -16 10
0 5 -6 7 -14 4 -7 -3 -16 1 -19 9 -8 20 3 57 16 57 24 0 -7 15 -34 16 -27 2
-30 -1 -25 -22 4 -14 2 -24 -4 -24 -6 0 -8 5 -5 10 3 6 -1 13 -9 16 -9 3 -13
10 -10 15 3 5 -2 6 -10 3 -12 -5 -16 0 -16 17 0 17 -3 20 -9 11 -6 -10 -13 -8
-32 8 -13 12 -18 19 -11 15 7 -3 12 0 12 8 0 8 -11 13 -30 13 -18 0 -30 -5
-30 -13 0 -7 6 -13 14 -13 21 0 12 -35 -10 -38 -16 -3 -17 -1 -4 7 10 8 12 13
4 19 -6 4 -14 14 -17 22 -3 10 -8 4 -12 -16 -7 -32 -7 -32 -36 -16 -17 10 -25
20 -19 26 6 6 16 4 26 -5 15 -12 17 -12 9 0 -5 10 -4 12 3 7 20 -12 13 10 -8
29 -17 15 -20 15 -20 3 0 -10 -9 -15 -30 -14 -16 1 -30 4 -30 9 0 4 -9 7 -20
7 -11 0 -20 5 -20 10 0 6 -6 10 -13 10 -21 0 -60 47 -54 64 4 9 11 16 17 16 6
0 8 11 6 25 -3 14 -1 23 4 20 5 -3 11 -1 14 4 4 5 2 13 -4 16 -8 5 -7 11 1 21
9 11 9 14 -1 14 -6 0 -14 -9 -17 -19 -3 -13 -10 -18 -21 -14 -10 4 -13 2 -8
-5 12 -19 -13 -23 -39 -6 -25 16 -34 44 -14 44 5 0 7 5 4 10 -3 6 -1 10 5 10
7 0 9 -8 5 -20 -7 -21 3 -24 43 -14 16 5 22 13 20 28 -2 11 -8 21 -15 21 -20
0 -27 14 -9 21 9 3 14 10 11 14 -3 5 5 16 17 24 12 9 19 16 14 16 -5 0 -3 6 3
14 15 18 -15 32 -34 16 -10 -8 -19 -5 -35 12 -17 19 -22 20 -30 8 -8 -13 -10
-13 -14 0 -9 29 -3 51 12 45 8 -3 12 0 10 7 -8 23 -27 19 -34 -6 -3 -14 -9
-25 -13 -24 -23 3 -39 -5 -53 -29 -10 -17 -18 -22 -18 -13 0 12 -2 12 -9 2 -7
-11 -9 -11 -14 2 -4 9 -1 16 4 16 6 0 9 9 6 20 -7 28 9 35 17 7 l6 -22 21 25
21 24 -24 20 c-15 12 -17 17 -6 13 10 -3 20 -1 24 5 5 7 9 7 13 -1 5 -8 13 -7
27 4 16 12 17 16 4 24 -8 5 -18 7 -22 5 -18 -12 5 42 27 61 20 18 62 79 69
103 6 18 4 22 -13 22 -12 0 -21 5 -21 10 0 6 7 10 16 10 8 0 12 5 9 10 -3 6 3
10 14 10 11 0 29 10 41 22 11 12 27 23 37 24 9 2 23 10 32 20 9 9 11 14 5 10
-7 -3 -14 0 -17 8 -3 8 2 16 14 19 11 3 22 0 24 -6 9 -28 14 -87 7 -86 -19 3
-26 -2 -13 -10 12 -8 11 -21 -2 -87 -9 -43 -14 -81 -12 -84 2 -3 4 -31 5 -61
3 -85 9 -109 30 -109 30 0 52 28 40 50 -6 11 -13 49 -16 85 -6 62 -5 67 15 72
12 3 21 10 21 15 0 6 -7 7 -15 4 -14 -5 -15 5 -10 72 4 42 8 87 11 98 2 12 -3
27 -11 34 -17 14 -20 40 -5 40 5 0 21 11 35 26 15 15 30 22 38 18 9 -6 9 -4
-1 8 -21 27 -50 29 -59 4 -4 -11 -6 -27 -5 -33 2 -8 -3 -10 -13 -7 -8 3 -16
14 -16 23 -1 9 -3 31 -5 48 -3 25 1 35 16 43 11 6 25 8 30 5 6 -3 10 1 10 10
0 13 -4 14 -21 5 -19 -11 -20 -10 -9 9 12 24 21 26 38 9 8 -8 15 -8 27 2 13
11 14 10 9 -5 -6 -15 -4 -16 14 -6 12 7 22 16 22 21 0 6 5 10 11 10 5 0 7 -5
3 -12 -4 -7 -3 -8 4 -4 18 11 14 23 -8 29 -17 4 -19 9 -10 32 5 14 10 28 10
30 0 5 -37 -2 -53 -10 -6 -4 -5 -1 4 7 10 9 13 21 8 38 -4 14 -7 18 -8 9 -1
-9 -10 -24 -21 -34 -11 -10 -20 -23 -20 -29 0 -6 4 -4 10 4 8 12 10 12 15 -2
4 -9 13 -14 20 -11 19 6 12 -32 -9 -52 -23 -23 -29 -18 -22 18 5 30 5 31 -9
13 -8 -11 -18 -16 -22 -13 -4 4 -2 12 5 19 7 7 8 17 2 29 -7 11 -7 20 0 24 15
9 12 25 -4 19 -8 -3 -16 3 -19 16 -3 12 -10 19 -16 16 -16 -10 -24 14 -10 32
11 14 11 15 -1 5 -11 -10 -17 -10 -30 2 -10 9 -26 17 -36 19 -11 2 -31 7 -45
11 -16 4 -30 2 -33 -4z m-21 -141 c3 -6 -1 -7 -9 -4 -18 7 -21 14 -7 14 6 0
13 -4 16 -10z m-1382 -144 c9 -7 17 -16 17 -19 0 -7 -22 -4 -37 6 -15 9 -27
-9 -17 -25 6 -9 3 -9 -9 0 -13 11 -14 17 -4 33 14 22 25 23 50 5z m148 -39
c-10 -9 -11 -8 -5 6 3 10 9 15 12 12 3 -3 0 -11 -7 -18z m-104 -9 c-3 -8 -6
-5 -6 6 -1 11 2 17 5 13 3 -3 4 -12 1 -19z m33 -8 c0 -5 -2 -10 -4 -10 -3 0
-8 5 -11 10 -3 6 -1 10 4 10 6 0 11 -4 11 -10z m80 -15 c0 -8 -4 -15 -10 -15
-5 0 -10 7 -10 15 0 8 5 15 10 15 6 0 10 -7 10 -15z m-20 -26 c0 -5 5 -7 11
-4 11 7 49 -22 49 -37 0 -4 -7 -8 -16 -8 -19 0 -75 45 -67 54 10 10 23 7 23
-5z m102 -41 c-7 -7 -12 -8 -12 -2 0 6 3 14 7 17 3 4 9 5 12 2 2 -3 -1 -11 -7
-17z m3 -28 c3 -6 -1 -7 -9 -4 -18 7 -21 14 -7 14 6 0 13 -4 16 -10z m-9 -347
c0 -26 -16 -53 -31 -53 -4 0 -4 14 0 30 4 20 3 30 -5 30 -6 0 -8 5 -5 10 3 6
14 10 24 10 12 0 17 -8 17 -27z m-61 -13 c-3 -5 -11 -10 -16 -10 -6 0 -7 5 -4
10 3 6 11 10 16 10 6 0 7 -4 4 -10z m989 -36 c4 -9 0 -27 -9 -40 -19 -30 -19
-34 3 -34 9 0 29 -11 44 -24 14 -14 28 -23 30 -20 3 2 5 -3 5 -11 0 -8 -4 -15
-8 -15 -5 0 -6 -8 -3 -17 5 -14 4 -15 -4 -4 -6 8 -8 20 -5 26 4 13 -46 55 -65
55 -5 0 -15 6 -21 14 -10 11 -7 19 10 35 18 17 20 23 9 36 -7 8 -8 15 -2 15 5
0 13 -7 16 -16z m126 -31 c1 -20 44 -56 68 -59 15 -1 28 -2 30 -3 1 -1 -5 -12
-14 -26 -9 -14 -20 -22 -25 -19 -5 3 -12 -2 -15 -10 -3 -9 -12 -16 -20 -16
-17 0 -17 1 -4 36 8 21 7 31 -5 44 -8 9 -12 20 -8 23 3 4 2 7 -4 7 -6 0 -13 7
-17 15 -3 8 -1 15 4 15 6 0 10 -3 10 -7z m-166 -59 c3 -8 2 -12 -4 -9 -6 3
-10 10 -10 16 0 14 7 11 14 -7z m101 6 c3 -5 1 -10 -4 -10 -6 0 -11 5 -11 10
0 6 2 10 4 10 3 0 8 -4 11 -10z m-125 -10 c0 -5 -5 -10 -11 -10 -5 0 -7 5 -4
10 3 6 8 10 11 10 2 0 4 -4 4 -10z m200 -6 c0 -8 -4 -12 -10 -9 -5 3 -10 10
-10 16 0 5 5 9 10 9 6 0 10 -7 10 -16z m-23 -20 c-3 -3 -12 -4 -19 -1 -8 3 -5
6 6 6 11 1 17 -2 13 -5z m-677 -54 c0 -6 -16 -27 -35 -47 -19 -20 -35 -31 -35
-26 0 6 7 17 16 24 9 7 20 23 25 36 9 23 29 32 29 13z m-76 -86 c3 -8 2 -12
-4 -9 -6 3 -10 10 -10 16 0 14 7 11 14 -7z m866 -24 c0 -13 -7 -20 -20 -20
-22 0 -27 15 -8 26 7 5 9 2 4 -7 -4 -8 -1 -6 6 4 16 22 18 21 18 -3z m-507
-113 c-3 -4 -11 -3 -18 3 -11 9 -14 7 -12 -9 0 -11 4 -18 9 -15 9 6 29 -31 21
-40 -3 -3 -1 -6 6 -6 17 0 25 28 13 43 -7 8 -7 18 -2 27 9 13 10 13 10 0 1 -9
11 -3 29 18 30 35 41 40 41 18 0 -7 -11 -21 -25 -30 -27 -18 -24 -41 6 -49 10
-3 17 -1 14 3 -11 18 15 20 47 4 29 -13 34 -21 34 -50 l0 -33 -17 26 -17 26
-20 -32 c-18 -29 -21 -31 -30 -16 -6 11 -12 14 -16 7 -9 -14 33 -37 62 -33 12
1 22 -2 22 -8 0 -6 8 -11 18 -11 14 0 15 -2 2 -10 -8 -5 -10 -10 -5 -10 7 0 9
-22 5 -62 -4 -35 -5 -79 -4 -98 8 -134 15 -214 19 -221 9 -14 7 -281 -1 -289
-5 -4 -30 -14 -56 -23 -41 -14 -48 -14 -48 -1 0 8 -7 14 -15 14 -17 0 -20 -16
-4 -25 6 -4 -16 -21 -48 -37 -158 -83 -203 -141 -234 -299 -10 -53 -14 -59
-21 -39 -5 13 -10 31 -12 39 -5 26 -18 54 -37 82 -20 28 -25 69 -34 244 -8
162 -17 279 -22 288 -2 4 3 10 11 13 9 3 16 13 16 21 0 13 -3 13 -15 3 -12
-10 -15 -10 -15 3 0 8 7 18 16 21 15 6 14 8 -3 24 -21 18 -36 79 -21 88 12 8
10 44 -3 44 -5 0 -7 5 -4 10 3 6 13 10 21 10 8 0 12 -5 9 -11 -4 -6 0 -9 10
-7 10 2 20 -3 22 -9 3 -7 -3 -13 -13 -13 -14 0 -16 -2 -5 -12 10 -11 15 -9 24
7 19 32 26 76 16 102 -7 18 -4 28 11 43 11 11 26 20 33 20 7 0 4 7 -7 15 -17
13 -22 13 -39 -3 -19 -17 -19 -16 -5 18 18 43 62 57 56 18 -2 -18 1 -22 17
-20 33 6 38 19 15 42 -12 12 -18 25 -13 29 5 3 12 14 16 24 3 9 11 17 16 17 6
0 8 -6 5 -13 -6 -18 21 -41 40 -34 8 3 17 -1 20 -9 7 -17 33 -19 38 -2 6 16
-14 68 -24 68 -4 0 -8 -10 -8 -22 0 -18 -15 -18 -15 0 -1 18 -17 31 -32 25
-11 -4 -14 -3 -9 5 4 7 16 12 28 12 15 0 18 4 14 17 -7 18 41 76 56 67 5 -3 7
0 6 8 -2 7 3 12 10 10 7 -1 15 5 19 14 5 14 8 13 19 -7 7 -13 10 -27 7 -32z
m155 1 c7 -7 12 -19 12 -27 -1 -13 -4 -12 -16 4 -8 11 -20 19 -25 18 -5 -2 -9
2 -9 7 0 14 23 13 38 -2z m792 -103 c0 -8 -4 -15 -9 -15 -5 0 -11 7 -15 15 -3
9 0 15 9 15 8 0 15 -7 15 -15z m-760 -35 c0 -5 -4 -10 -10 -10 -5 0 -10 5 -10
10 0 6 5 10 10 10 6 0 10 -4 10 -10z m752 -10 c-2 -7 4 -20 13 -30 13 -15 14
-19 1 -29 -12 -10 -15 -5 -21 28 -6 35 -9 39 -21 27 -8 -8 -14 -20 -14 -26 0
-6 -5 -8 -11 -5 -7 5 -2 16 12 31 23 25 46 27 41 4z m-1165 -16 c-3 -3 -12 -4
-19 -1 -8 3 -5 6 6 6 11 1 17 -2 13 -5z m-214 -185 c-16 -16 -3 -56 23 -68 13
-6 24 -16 24 -23 0 -9 -3 -8 -10 2 -8 13 -10 13 -10 -1 0 -9 -7 -16 -16 -16
-10 0 -14 7 -11 19 3 10 1 21 -4 24 -5 3 -9 1 -9 -4 0 -6 -13 -15 -29 -20 -24
-8 -31 -7 -35 5 -4 10 -2 13 8 10 7 -3 23 1 35 10 18 12 20 18 10 29 -10 12
-8 18 7 29 22 17 33 20 17 4z m1260 -41 c5 1 6 -2 2 -8 -3 -5 -1 -10 4 -10 6
0 11 -8 11 -17 0 -15 -2 -16 -10 -3 -8 13 -10 12 -10 -2 0 -10 -4 -18 -9 -18
-5 0 -7 10 -4 23 4 17 2 19 -6 7 -5 -8 -11 -12 -13 -10 -31 48 -29 67 6 48 11
-7 25 -11 29 -10z m-1383 -38 c0 -5 -4 -10 -9 -10 -6 0 -13 5 -16 10 -3 6 1
10 9 10 9 0 16 -4 16 -10z m110 -31 c0 -6 -4 -7 -10 -4 -5 3 -10 11 -10 16 0
6 5 7 10 4 6 -3 10 -11 10 -16z m-40 -33 c-7 -9 -16 -13 -21 -10 -5 3 -9 0 -9
-7 0 -8 -5 -7 -17 2 -9 8 -14 9 -10 3 4 -7 0 -14 -7 -17 -10 -4 -14 1 -13 14
1 18 8 21 53 22 15 1 20 6 16 16 -4 13 -2 14 8 4 11 -10 11 -15 0 -27z m-80
-627 c96 -43 130 -98 166 -267 27 -130 29 -230 7 -327 -20 -89 -71 -246 -88
-271 -16 -25 -157 -97 -234 -120 -105 -31 -219 -24 -247 14 -7 10 -17 18 -23
18 -6 1 -18 2 -26 3 -9 0 -24 14 -33 31 -9 16 -26 31 -37 32 -11 2 -27 17 -35
33 -9 17 -28 50 -44 74 -16 24 -42 74 -58 110 -28 59 -31 77 -32 171 -1 98 1
109 29 165 20 41 59 89 123 153 51 50 97 92 103 92 5 0 26 16 46 36 54 52 79
66 101 60 32 -11 40 -47 41 -192 2 -201 11 -247 50 -257 31 -8 44 18 48 91 1
37 5 89 7 117 3 27 6 95 7 150 1 55 4 103 5 106 6 11 77 -2 124 -22z m781
-106 c1 -16 1 -82 0 -147 0 -66 4 -125 10 -132 6 -8 2 -16 -16 -28 -57 -37
-68 -114 -25 -169 24 -30 36 -62 44 -109 10 -65 24 -88 50 -88 31 0 46 26 46
76 0 29 7 43 34 69 33 31 82 52 94 40 12 -12 -28 -65 -117 -153 -51 -51 -104
-97 -117 -102 -16 -6 -37 -5 -65 5 -23 8 -51 15 -62 15 -34 0 -86 42 -109 89
-42 87 -20 291 55 495 31 86 34 90 92 127 72 46 85 48 86 12z m52 -81 c3 -27
1 -40 -5 -34 -5 5 -11 31 -13 58 -5 60 11 38 18 -24z m9 -86 c2 -19 0 -32 -4
-30 -8 5 -12 64 -4 64 2 0 6 -15 8 -34z m11 -81 c4 -8 2 -17 -3 -20 -6 -4 -10
3 -10 14 0 25 6 27 13 6z"/>
<path d="M3040 3876 c0 -2 7 -6 15 -10 8 -3 15 -1 15 4 0 6 -7 10 -15 10 -8 0
-15 -2 -15 -4z"/>
<path d="M4220 3326 c0 -2 7 -6 15 -10 8 -3 15 -1 15 4 0 6 -7 10 -15 10 -8 0
-15 -2 -15 -4z"/>
<path d="M3699 3018 c-25 -20 -31 -58 -11 -66 26 -10 39 -25 35 -42 -6 -28 11
-40 50 -33 20 3 37 10 37 15 0 6 -11 7 -25 4 -21 -5 -25 -3 -25 15 0 12 -8 23
-20 26 -22 6 -25 14 -11 29 6 5 5 20 -2 37 -10 24 -14 26 -28 15z"/>
<path d="M3820 2975 c0 -8 7 -15 15 -15 8 0 15 4 15 9 0 5 -7 11 -15 15 -9 3
-15 0 -15 -9z"/>
<path d="M3890 2972 c0 -6 -7 -9 -15 -6 -16 6 -21 -11 -6 -20 11 -7 36 22 27
31 -3 3 -6 1 -6 -5z"/>
<path d="M3780 2952 c0 -5 9 -12 21 -15 13 -3 19 -1 16 6 -5 15 -37 22 -37 9z"/>
<path d="M3817 2909 c7 -7 15 -10 18 -7 3 3 -2 9 -12 12 -14 6 -15 5 -6 -5z"/>
<path d="M3590 2881 c0 -6 5 -13 10 -16 6 -3 10 -15 10 -26 0 -22 15 -25 24
-4 3 9 -3 19 -15 25 -11 6 -17 15 -14 21 4 5 1 9 -4 9 -6 0 -11 -4 -11 -9z"/>
<path d="M3818 2877 c-30 -12 -38 -37 -12 -37 14 0 14 -3 4 -15 -7 -9 -10 -19
-6 -22 12 -12 25 20 20 47 -5 21 -3 23 8 10 13 -16 58 -15 58 0 0 5 9 7 20 5
12 -2 18 0 14 6 -6 10 -31 7 -70 -8 -13 -5 -16 -3 -11 10 3 9 5 17 4 16 -1 -1
-14 -6 -29 -12z"/>
<path d="M3755 2850 c3 -5 8 -10 11 -10 2 0 4 5 4 10 0 6 -5 10 -11 10 -5 0
-7 -4 -4 -10z"/>
<path d="M3680 2840 c0 -5 5 -10 10 -10 6 0 10 5 10 10 0 6 -4 10 -10 10 -5 0
-10 -4 -10 -10z"/>
<path d="M3713 2815 c0 -18 4 -25 16 -23 11 2 16 -4 15 -19 0 -18 3 -20 22
-13 15 6 24 5 28 -3 3 -7 3 2 -1 18 -8 43 -11 45 -44 45 -18 0 -28 4 -24 10 3
6 2 10 -3 10 -5 0 -9 -11 -9 -25z"/>
<path d="M3570 2795 c0 -8 5 -15 10 -15 6 0 10 7 10 15 0 8 -4 15 -10 15 -5 0
-10 -7 -10 -15z"/>
<path d="M3648 2803 c7 -3 16 -2 19 1 4 3 -2 6 -13 5 -11 0 -14 -3 -6 -6z"/>
<path d="M3884 2785 c11 -8 25 -15 30 -15 6 0 2 7 -8 15 -11 8 -25 15 -30 15
-6 0 -2 -7 8 -15z"/>
<path d="M3610 2779 c0 -5 5 -7 10 -4 6 3 10 8 10 11 0 2 -4 4 -10 4 -5 0 -10
-5 -10 -11z"/>
<path d="M3524 2755 c-18 -14 -18 -14 9 -15 17 0 27 5 27 15 0 19 -11 19 -36
0z"/>
<path d="M3588 2737 c-39 -15 -35 -25 8 -18 21 3 37 10 36 16 -1 14 -13 14
-44 2z"/>
<path d="M3510 2725 c0 -15 18 -40 24 -34 3 3 -1 14 -9 25 -8 10 -14 15 -15 9z"/>
<path d="M3865 2719 c-4 -6 -5 -12 -2 -15 2 -3 7 2 10 11 7 17 1 20 -8 4z"/>
<path d="M3543 2681 c-10 -15 -9 -22 2 -31 11 -9 14 -6 13 19 -1 17 -2 31 -2
31 -1 0 -7 -9 -13 -19z"/>
<path d="M3630 2675 c13 -14 26 -22 29 -19 3 3 -2 11 -11 18 -10 7 -15 16 -11
19 3 4 -2 7 -12 7 -17 0 -16 -3 5 -25z"/>
<path d="M3750 2654 c0 -8 5 -12 10 -9 6 4 8 11 5 16 -9 14 -15 11 -15 -7z"/>
<path d="M3686 2643 c-6 -14 -5 -15 5 -6 7 7 10 15 7 18 -3 3 -9 -2 -12 -12z"/>
<path d="M3521 2634 c0 -11 3 -14 6 -6 3 7 2 16 -1 19 -3 4 -6 -2 -5 -13z"/>
<path d="M3621 2614 c0 -11 3 -14 6 -6 3 7 2 16 -1 19 -3 4 -6 -2 -5 -13z"/>
<path d="M3503 2593 c-10 -16 -13 -16 -22 -3 -9 12 -11 11 -11 -7 0 -13 5 -23
10 -23 7 0 7 -6 0 -19 -13 -25 -13 -31 0 -31 6 0 10 9 10 20 0 26 60 65 72 47
5 -8 8 -7 8 4 0 31 -48 39 -67 12z"/>
<path d="M3731 2584 c0 -11 3 -14 6 -6 3 7 2 16 -1 19 -3 4 -6 -2 -5 -13z"/>
<path d="M3900 2589 c0 -5 5 -7 10 -4 6 3 10 8 10 11 0 2 -4 4 -10 4 -5 0 -10
-5 -10 -11z"/>
<path d="M3643 2569 c-1 -9 7 -19 18 -22 15 -4 19 0 19 18 0 28 -35 32 -37 4z"/>
<path d="M3810 2579 c0 -5 5 -7 10 -4 6 3 10 8 10 11 0 2 -4 4 -10 4 -5 0 -10
-5 -10 -11z"/>
<path d="M3571 2534 c6 -7 16 -11 21 -8 11 7 3 17 -18 20 -12 2 -13 -1 -3 -12z"/>
<path d="M3510 2520 c0 -5 4 -10 9 -10 10 0 24 -39 21 -59 -1 -13 1 -13 14 -2
15 12 15 15 -1 26 -9 7 -14 19 -10 28 3 9 -1 18 -9 21 -21 8 -24 8 -24 -4z"/>
<path d="M3580 2455 c-13 -15 -5 -39 11 -30 5 4 14 15 19 26 8 15 7 19 -3 19
-8 0 -20 -7 -27 -15z"/>
<path d="M3920 2460 c-12 -7 -12 -12 -3 -21 10 -10 14 -9 19 5 8 22 2 27 -16
16z"/>
<path d="M3685 2450 c3 -5 8 -10 11 -10 2 0 4 5 4 10 0 6 -5 10 -11 10 -5 0
-7 -4 -4 -10z"/>
<path d="M3670 2406 c0 -2 7 -7 16 -10 8 -3 12 -2 9 4 -6 10 -25 14 -25 6z"/>
<path d="M3738 2403 c7 -3 16 -2 19 1 4 3 -2 6 -13 5 -11 0 -14 -3 -6 -6z"/>
<path d="M3497 2376 c-7 -19 11 -32 24 -19 6 6 5 14 -4 22 -12 9 -16 8 -20 -3z"/>
<path d="M3595 2380 c-3 -5 -2 -10 4 -10 5 0 13 5 16 10 3 6 2 10 -4 10 -5 0
-13 -4 -16 -10z"/>
<path d="M3450 2361 c0 -6 4 -13 10 -16 6 -3 7 1 4 9 -7 18 -14 21 -14 7z"/>
<path d="M3535 2330 c-3 -5 -1 -10 4 -10 6 0 11 5 11 10 0 6 -2 10 -4 10 -3 0
-8 -4 -11 -10z"/>
<path d="M3820 2289 c0 -5 5 -7 10 -4 6 3 10 8 10 11 0 2 -4 4 -10 4 -5 0 -10
-5 -10 -11z"/>
<path d="M3600 2270 c0 -5 5 -10 10 -10 6 0 10 5 10 10 0 6 -4 10 -10 10 -5 0
-10 -4 -10 -10z"/>
<path d="M3568 2243 c-22 -6 -23 -17 -3 -33 14 -12 17 -8 14 16 0 4 5 11 13
15 14 9 5 10 -24 2z"/>
<path d="M3490 2200 c0 -5 5 -10 11 -10 5 0 7 5 4 10 -3 6 -8 10 -11 10 -2 0
-4 -4 -4 -10z"/>
<path d="M3493 2016 c-6 -8 -9 -17 -6 -20 7 -7 33 13 33 25 0 13 -13 10 -27
-5z"/>
<path d="M3160 1715 c0 -8 7 -15 15 -15 8 0 15 7 15 15 0 8 -7 15 -15 15 -8 0
-15 -7 -15 -15z"/>
<path d="M4415 4281 c-3 -5 -2 -12 3 -15 5 -3 9 1 9 9 0 17 -3 19 -12 6z"/>
<path d="M4622 4271 c-11 -7 -11 -9 1 -14 16 -6 27 0 27 15 0 10 -11 10 -28
-1z"/>
<path d="M4220 4259 c0 -5 5 -7 10 -4 6 3 10 8 10 11 0 2 -4 4 -10 4 -5 0 -10
-5 -10 -11z"/>
<path d="M2914 4245 c-9 -22 1 -29 15 -11 8 10 9 16 1 21 -5 3 -13 -1 -16 -10z"/>
<path d="M3426 4244 c-4 -10 -1 -14 6 -12 15 5 23 28 10 28 -5 0 -13 -7 -16
-16z"/>
<path d="M4275 4250 c-3 -5 -1 -10 4 -10 6 0 11 5 11 10 0 6 -2 10 -4 10 -3 0
-8 -4 -11 -10z"/>
<path d="M4512 4249 c2 -7 10 -15 17 -17 8 -3 12 1 9 9 -2 7 -10 15 -17 17 -8
3 -12 -1 -9 -9z"/>
<path d="M2700 4240 c0 -5 5 -10 11 -10 5 0 7 5 4 10 -3 6 -8 10 -11 10 -2 0
-4 -4 -4 -10z"/>
<path d="M940 4196 c-164 -109 -199 -127 -350 -176 -85 -28 -161 -50 -169 -50
-8 0 -22 7 -32 16 -25 23 -78 25 -119 4 -19 -10 -49 -21 -66 -24 -35 -8 -68
-38 -82 -76 -12 -33 5 -94 57 -205 24 -50 56 -124 71 -165 16 -41 40 -102 54
-135 l25 -60 -28 -30 c-58 -61 -47 -130 25 -165 48 -24 144 -130 144 -160 0
-11 23 -83 50 -161 28 -78 50 -158 50 -178 1 -53 20 -98 71 -167 25 -34 52
-82 59 -107 20 -74 62 -106 90 -72 11 13 11 32 0 100 -11 71 -11 87 1 101 34
41 205 135 309 169 74 24 249 99 332 142 45 24 71 44 79 63 l13 27 53 -53 c30
-29 61 -55 71 -58 129 -37 161 -49 174 -63 8 -10 27 -52 42 -93 45 -124 48
-129 62 -141 24 -20 64 4 64 38 0 32 -26 160 -39 195 -19 52 -6 85 65 161 38
41 106 126 151 191 45 64 83 113 86 109 3 -4 17 -44 32 -88 62 -188 118 -265
191 -265 35 0 62 28 81 85 11 34 -4 104 -30 133 -44 51 -69 175 -71 357 -1
114 -4 146 -19 173 -67 122 -189 142 -384 63 -49 -19 -53 -19 -54 -3 0 9 -2
26 -4 37 -2 11 -6 36 -9 55 -2 19 -8 58 -12 87 -6 46 -3 58 26 114 67 129 22
234 -122 285 -61 21 -106 17 -177 -16 -132 -63 -254 -169 -292 -255 -28 -64
-32 -105 -33 -360 -1 -204 2 -242 22 -337 20 -93 42 -168 66 -229 6 -13 1 -15
-22 -11 -16 2 -43 -3 -59 -11 -22 -12 -46 -14 -87 -10 -48 5 -60 3 -79 -15
-12 -11 -103 -47 -202 -80 -99 -33 -194 -66 -212 -73 -18 -7 -35 -10 -39 -7
-7 7 -20 63 -29 125 -6 42 -40 161 -68 240 -15 40 -15 42 7 57 49 32 96 46
122 36 34 -13 81 -13 90 1 3 6 18 9 33 6 30 -6 61 8 61 27 0 7 14 32 31 56 17
23 33 58 36 79 4 20 10 39 15 42 13 8 -12 49 -29 49 -7 0 -13 5 -13 10 0 6
-14 17 -32 24 -32 14 -88 6 -114 -15 -14 -12 -186 -70 -191 -65 -6 6 -13 47
-20 114 -6 62 -5 64 28 98 19 20 57 52 84 72 28 19 62 46 77 60 14 13 31 21
37 18 5 -4 17 -31 25 -61 17 -55 38 -85 60 -85 27 0 35 27 33 107 -1 71 1 85
24 119 83 125 110 182 104 216 -4 18 -6 41 -6 51 0 23 -56 57 -94 57 -19 0
-55 -17 -95 -44z m884 -349 c10 -7 33 -66 56 -140 l38 -128 -40 -25 c-26 -17
-46 -41 -59 -69 -18 -41 -18 -46 -3 -85 9 -22 27 -49 41 -59 13 -11 35 -47 48
-81 29 -73 41 -90 66 -90 26 0 41 34 36 87 -3 37 0 50 21 74 31 37 78 63 87
48 10 -16 -36 -98 -104 -188 -75 -98 -92 -111 -140 -105 -20 3 -53 5 -75 4
-49 -1 -110 39 -136 90 -43 84 -51 283 -19 465 l20 110 57 52 c60 55 77 61
106 40z m-1238 -363 c15 -36 14 -51 -4 -40 -9 5 -22 76 -14 76 1 0 10 -16 18
-36z"/>
<path d="M4480 4230 c0 -5 5 -10 10 -10 6 0 10 5 10 10 0 6 -4 10 -10 10 -5 0
-10 -4 -10 -10z"/>
<path d="M4170 4219 c0 -5 5 -7 10 -4 6 3 10 8 10 11 0 2 -4 4 -10 4 -5 0 -10
-5 -10 -11z"/>
<path d="M4196 4209 c-10 -10 -16 -24 -14 -31 3 -8 11 -3 23 15 21 33 17 41
-9 16z"/>
<path d="M4240 4221 c0 -5 5 -13 10 -16 6 -3 10 -2 10 4 0 5 -4 13 -10 16 -5
3 -10 2 -10 -4z"/>
<path d="M2970 4215 c1 -12 25 -45 34 -45 3 0 6 9 6 21 0 12 -4 18 -11 13 -6
-3 -15 0 -20 7 -5 8 -9 10 -9 4z"/>
<path d="M3145 4200 c3 -5 8 -10 11 -10 2 0 4 5 4 10 0 6 -5 10 -11 10 -5 0
-7 -4 -4 -10z"/>
<path d="M4115 4200 c3 -6 1 -10 -4 -10 -6 0 -11 -5 -11 -11 0 -8 4 -8 14 0
11 9 15 9 19 -1 4 -9 6 -8 6 3 1 9 -6 20 -15 23 -8 3 -12 2 -9 -4z"/>
<path d="M3040 4166 c0 -18 26 -39 39 -32 6 4 4 14 -7 26 -19 23 -32 26 -32 6z"/>
<path d="M2820 4159 c0 -5 5 -7 10 -4 6 3 10 8 10 11 0 2 -4 4 -10 4 -5 0 -10
-5 -10 -11z"/>
<path d="M2936 4157 c3 -10 9 -15 12 -12 3 3 0 11 -7 18 -10 9 -11 8 -5 -6z"/>
<path d="M2470 4145 c0 -8 4 -15 8 -15 5 0 9 7 9 15 0 8 -4 15 -9 15 -4 0 -8
-7 -8 -15z"/>
<path d="M2965 4150 c3 -5 10 -10 16 -10 5 0 9 5 9 10 0 6 -7 10 -16 10 -8 0
-12 -4 -9 -10z"/>
<path d="M3226 4144 c-3 -9 -4 -20 -1 -24 9 -15 35 1 35 21 0 23 -25 25 -34 3z"/>
<path d="M2840 4133 c0 -9 -7 -21 -15 -27 -14 -10 -14 -13 0 -34 9 -12 21 -20
26 -16 6 4 3 14 -7 25 -20 22 -9 26 13 4 8 -8 20 -12 26 -8 8 5 8 8 -1 11 -19
6 -14 22 8 22 11 0 20 -5 20 -11 0 -5 4 -8 8 -5 5 3 15 -4 22 -15 8 -10 19
-19 24 -19 5 0 2 8 -7 18 -20 22 -22 42 -5 42 7 0 2 7 -11 16 -14 10 -26 13
-30 7 -9 -13 -41 -24 -41 -14 0 5 -7 11 -15 15 -10 3 -15 -1 -15 -11z"/>
<path d="M3001 4136 c-10 -11 -9 -14 1 -12 14 2 23 15 15 22 -2 2 -10 -2 -16
-10z"/>
<path d="M2680 4123 c0 -22 25 -42 40 -33 18 11 6 36 -19 43 -14 3 -21 0 -21
-10z"/>
<path d="M3488 4128 c9 -9 15 -9 24 0 9 9 7 12 -12 12 -19 0 -21 -3 -12 -12z"/>
<path d="M3022 4115 c-19 -10 -20 -14 -7 -18 8 -4 14 -12 13 -19 -2 -8 5 -12
20 -10 12 2 22 0 21 -5 -3 -20 2 -27 11 -13 8 13 10 13 10 -1 0 -19 26 -33 35
-18 4 5 -3 21 -14 35 -11 14 -18 33 -15 42 5 15 4 14 -6 -1 -11 -17 -12 -17
-28 1 -15 17 -20 18 -40 7z"/>
<path d="M4130 4110 c0 -5 5 -10 11 -10 5 0 7 5 4 10 -3 6 -8 10 -11 10 -2 0
-4 -4 -4 -10z"/>
<path d="M2070 4100 c0 -5 5 -10 11 -10 5 0 7 5 4 10 -3 6 -8 10 -11 10 -2 0
-4 -4 -4 -10z"/>
<path d="M2955 4100 c3 -5 8 -10 11 -10 2 0 4 5 4 10 0 6 -5 10 -11 10 -5 0
-7 -4 -4 -10z"/>
<path d="M2787 4079 c-4 -16 -3 -18 9 -8 7 6 11 15 8 20 -8 13 -11 11 -17 -12z"/>
<path d="M3510 4081 c0 -6 4 -13 10 -16 6 -3 7 1 4 9 -7 18 -14 21 -14 7z"/>
<path d="M4656 4083 c5 -5 12 -12 16 -18 4 -6 8 -2 8 8 0 9 -7 17 -17 17 -9 0
-12 -3 -7 -7z"/>
<path d="M2730 4065 c0 -9 5 -15 11 -13 6 2 11 8 11 13 0 5 -5 11 -11 13 -6 2
-11 -4 -11 -13z"/>
<path d="M3265 4070 c-3 -5 1 -10 10 -10 9 0 13 5 10 10 -3 6 -8 10 -10 10 -2
0 -7 -4 -10 -10z"/>
<path d="M3852 4071 c2 -7 7 -12 11 -12 12 1 9 15 -3 20 -7 2 -11 -2 -8 -8z"/>
<path d="M4170 4064 c0 -8 -4 -12 -10 -9 -5 3 -10 1 -10 -5 0 -7 7 -9 16 -6 9
3 18 6 20 6 2 0 4 7 4 15 0 8 -4 15 -10 15 -5 0 -10 -7 -10 -16z"/>
<path d="M2890 4060 c0 -5 5 -10 10 -10 6 0 10 -7 10 -16 0 -9 7 -14 18 -12 9
2 17 10 17 18 0 9 -7 14 -17 12 -10 -2 -18 2 -18 8 0 5 -4 10 -10 10 -5 0 -10
-4 -10 -10z"/>
<path d="M4093 4052 c-3 -9 -8 -21 -11 -27 -3 -5 -2 -7 2 -3 5 4 18 3 30 -1
18 -8 21 -5 21 18 1 31 -32 41 -42 13z"/>
<path d="M3350 4039 c0 -5 5 -7 10 -4 6 3 10 8 10 11 0 2 -4 4 -10 4 -5 0 -10
-5 -10 -11z"/>
<path d="M3430 4039 c0 -5 5 -7 10 -4 6 3 10 8 10 11 0 2 -4 4 -10 4 -5 0 -10
-5 -10 -11z"/>
<path d="M4580 4034 c0 -11 -6 -15 -20 -11 -10 3 -19 2 -18 -2 3 -27 -30 -37
-60 -17 -22 14 -38 -10 -19 -28 9 -9 18 -12 21 -7 4 5 20 7 36 5 25 -4 30 -2
30 15 0 12 5 21 11 21 6 0 8 -7 5 -16 -5 -14 -4 -15 9 -4 9 7 13 15 11 18 -3
2 -1 13 5 23 6 13 6 19 -1 19 -5 0 -10 -7 -10 -16z"/>
<path d="M2745 4020 c4 -6 11 -8 16 -5 14 9 11 15 -7 15 -8 0 -12 -5 -9 -10z"/>
<path d="M3139 4026 c-3 -3 -1 -26 5 -51 11 -45 35 -61 52 -33 4 7 3 8 -4 4
-8 -5 -12 0 -12 13 0 11 5 23 10 26 6 4 7 11 3 18 -4 7 -9 5 -13 -7 -9 -27
-24 -24 -30 7 -3 16 -8 26 -11 23z"/>
<path d="M3670 4015 c0 -8 5 -15 11 -15 6 0 17 7 25 15 14 13 13 15 -10 15
-16 0 -26 -6 -26 -15z"/>
<path d="M4710 4026 c0 -9 30 -14 35 -6 4 6 -3 10 -14 10 -12 0 -21 -2 -21 -4z"/>
<path d="M3297 4013 c-4 -3 -7 -13 -7 -22 1 -13 3 -13 11 2 11 19 8 33 -4 20z"/>
<path d="M3525 4011 c-2 -5 8 -11 23 -14 35 -7 38 -3 7 11 -13 6 -27 7 -30 3z"/>
<path d="M3966 4013 c-11 -11 -6 -23 9 -23 8 0 15 4 15 9 0 13 -16 22 -24 14z"/>
<path d="M4604 3998 c-3 -4 -2 -8 2 -8 3 0 -4 -9 -17 -19 -20 -17 -22 -22 -10
-33 8 -7 11 -8 8 -3 -3 6 3 16 14 23 11 7 19 8 19 2 0 -24 16 -7 18 18 1 20
-3 29 -13 29 -9 0 -18 -4 -21 -9z"/>
<path d="M4035 3990 c3 -5 14 -10 23 -10 15 0 15 2 2 10 -20 13 -33 13 -25 0z"/>
<path d="M3080 3980 c0 -5 5 -10 10 -10 6 0 10 5 10 10 0 6 -4 10 -10 10 -5 0
-10 -4 -10 -10z"/>
<path d="M3416 3973 c-10 -25 10 -39 23 -15 10 19 6 32 -10 32 -4 0 -10 -8
-13 -17z"/>
<path d="M3480 3980 c0 -5 5 -10 11 -10 5 0 7 5 4 10 -3 6 -8 10 -11 10 -2 0
-4 -4 -4 -10z"/>
<path d="M2535 3970 c-3 -5 -1 -10 4 -10 6 0 11 5 11 10 0 6 -2 10 -4 10 -3 0
-8 -4 -11 -10z"/>
<path d="M2625 3960 c-3 -5 1 -10 9 -10 9 0 16 5 16 10 0 6 -4 10 -9 10 -6 0
-13 -4 -16 -10z"/>
<path d="M3254 3956 c-3 -9 -14 -16 -24 -16 -23 0 -32 -13 -24 -34 9 -23 52
-17 46 7 -3 10 3 23 13 31 13 9 15 15 6 20 -6 4 -14 0 -17 -8z"/>
<path d="M3800 3940 c0 -5 5 -10 10 -10 6 0 10 5 10 10 0 6 -4 10 -10 10 -5 0
-10 -4 -10 -10z"/>
<path d="M3878 3943 c7 -3 16 -2 19 1 4 3 -2 6 -13 5 -11 0 -14 -3 -6 -6z"/>
<path d="M2365 3920 c-3 -5 -1 -10 4 -10 6 0 11 5 11 10 0 6 -2 10 -4 10 -3 0
-8 -4 -11 -10z"/>
<path d="M3315 3920 c-3 -5 -1 -10 4 -10 6 0 11 5 11 10 0 6 -2 10 -4 10 -3 0
-8 -4 -11 -10z"/>
<path d="M3490 3921 c0 -6 5 -13 10 -16 6 -3 10 1 10 9 0 9 -4 16 -10 16 -5 0
-10 -4 -10 -9z"/>
<path d="M2651 3894 c0 -11 3 -14 6 -6 3 7 2 16 -1 19 -3 4 -6 -2 -5 -13z"/>
<path d="M3415 3875 c1 -16 3 -33 4 -37 2 -16 31 -7 41 13 17 30 6 53 -19 40
-14 -8 -21 -7 -24 2 -3 6 -4 -1 -2 -18z"/>
<path d="M3805 3890 c-3 -5 -1 -10 4 -10 6 0 11 5 11 10 0 6 -2 10 -4 10 -3 0
-8 -4 -11 -10z"/>
<path d="M2515 3879 c-4 -6 -1 -17 7 -25 12 -12 14 -11 15 6 2 23 -13 35 -22
19z"/>
<path d="M3227 3873 c-7 -11 10 -40 18 -31 4 4 3 14 -3 24 -5 9 -12 12 -15 7z"/>
<path d="M3917 3859 c-3 -13 0 -22 9 -26 20 -8 36 10 28 30 -9 24 -31 21 -37
-4z"/>
<path d="M3538 3858 c9 -9 9 -15 -1 -27 -10 -14 -10 -14 5 -3 17 14 14 42 -5
42 -8 0 -7 -4 1 -12z"/>
<path d="M3585 3850 c-3 -5 1 -10 10 -10 9 0 13 5 10 10 -3 6 -8 10 -10 10 -2
0 -7 -4 -10 -10z"/>
<path d="M2666 3835 c4 -8 8 -15 10 -15 2 0 4 7 4 15 0 8 -4 15 -10 15 -5 0
-7 -7 -4 -15z"/>
<path d="M3273 3843 c-21 -8 -16 -43 6 -43 14 0 17 6 13 25 -2 14 -5 25 -6 24
0 0 -7 -3 -13 -6z"/>
<path d="M3810 3840 c0 -5 5 -10 10 -10 6 0 10 5 10 10 0 6 -4 10 -10 10 -5 0
-10 -4 -10 -10z"/>
<path d="M3360 3833 c0 -5 4 -14 9 -22 8 -12 12 -13 26 -1 13 10 13 15 3 21
-16 11 -38 11 -38 2z"/>
<path d="M3695 3830 c3 -5 8 -10 11 -10 2 0 4 5 4 10 0 6 -5 10 -11 10 -5 0
-7 -4 -4 -10z"/>
<path d="M3768 3826 c-10 -7 -15 -16 -12 -19 4 -3 13 1 21 9 20 19 13 26 -9
10z"/>
<path d="M3236 3817 c3 -10 9 -15 12 -12 3 3 0 11 -7 18 -10 9 -11 8 -5 -6z"/>
<path d="M3326 3814 c-8 -21 -8 -24 3 -24 5 0 11 9 14 20 6 24 -8 27 -17 4z"/>
<path d="M3483 3813 c-4 -9 -2 -18 4 -20 6 -2 9 -13 6 -23 -3 -11 0 -20 6 -20
11 0 13 6 13 40 0 34 -2 40 -12 40 -6 0 -14 -8 -17 -17z"/>
<path d="M3960 3820 c0 -5 5 -10 11 -10 5 0 7 5 4 10 -3 6 -8 10 -11 10 -2 0
-4 -4 -4 -10z"/>
<path d="M3616 3811 c-4 -5 -2 -12 3 -15 5 -4 12 -2 15 3 4 5 2 12 -3 15 -5 4
-12 2 -15 -3z"/>
<path d="M3700 3798 c0 -21 18 -43 27 -34 4 5 2 11 -5 13 -6 3 -10 9 -7 13 3
5 1 11 -5 15 -5 3 -10 0 -10 -7z"/>
<path d="M3785 3800 c3 -5 8 -10 11 -10 2 0 4 5 4 10 0 6 -5 10 -11 10 -5 0
-7 -4 -4 -10z"/>
<path d="M3889 3753 c17 -23 23 -22 27 5 2 12 -4 17 -20 17 -22 0 -22 -1 -7
-22z"/>
<path d="M4600 3759 c0 -18 2 -19 15 -9 15 12 12 30 -6 30 -5 0 -9 -10 -9 -21z"/>
<path d="M3360 3766 c0 -2 7 -6 15 -10 8 -3 15 -1 15 4 0 6 -7 10 -15 10 -8 0
-15 -2 -15 -4z"/>
<path d="M2450 3734 c0 -8 5 -12 10 -9 6 4 8 11 5 16 -9 14 -15 11 -15 -7z"/>
<path d="M2650 3740 c0 -5 5 -10 10 -10 6 0 10 5 10 10 0 6 -4 10 -10 10 -5 0
-10 -4 -10 -10z"/>
<path d="M4306 3733 c-10 -25 10 -39 23 -15 10 19 6 32 -10 32 -4 0 -10 -8
-13 -17z"/>
<path d="M3800 3730 c0 -5 5 -10 10 -10 6 0 10 5 10 10 0 6 -4 10 -10 10 -5 0
-10 -4 -10 -10z"/>
<path d="M3925 3720 c-3 -5 1 -10 9 -10 9 0 16 5 16 10 0 6 -4 10 -9 10 -6 0
-13 -4 -16 -10z"/>
<path d="M3485 3710 c3 -5 8 -10 11 -10 2 0 4 5 4 10 0 6 -5 10 -11 10 -5 0
-7 -4 -4 -10z"/>
<path d="M2510 3690 c0 -5 5 -10 10 -10 6 0 10 5 10 10 0 6 -4 10 -10 10 -5 0
-10 -4 -10 -10z"/>
<path d="M3515 3690 c-3 -5 -1 -10 4 -10 6 0 11 5 11 10 0 6 -2 10 -4 10 -3 0
-8 -4 -11 -10z"/>
<path d="M2777 3660 c-3 -11 0 -23 6 -27 7 -3 9 -3 5 2 -4 4 -3 14 3 21 6 7 6
15 1 18 -6 3 -12 -3 -15 -14z"/>
<path d="M3840 3669 c0 -5 5 -7 10 -4 6 3 10 8 10 11 0 2 -4 4 -10 4 -5 0 -10
-5 -10 -11z"/>
<path d="M4500 3669 c0 -5 5 -7 10 -4 6 3 10 8 10 11 0 2 -4 4 -10 4 -5 0 -10
-5 -10 -11z"/>
<path d="M4965 3670 c-3 -5 -1 -10 4 -10 6 0 11 5 11 10 0 6 -2 10 -4 10 -3 0
-8 -4 -11 -10z"/>
<path d="M3535 3660 c-3 -5 1 -10 10 -10 9 0 13 5 10 10 -3 6 -8 10 -10 10 -2
0 -7 -4 -10 -10z"/>
<path d="M3680 3660 c0 -5 11 -9 25 -8 14 1 25 6 25 10 0 4 -11 8 -25 8 -14 0
-25 -4 -25 -10z"/>
<path d="M3595 3650 c3 -5 8 -10 11 -10 2 0 4 5 4 10 0 6 -5 10 -11 10 -5 0
-7 -4 -4 -10z"/>
<path d="M2670 3642 c0 -4 9 -13 20 -20 19 -12 20 -11 8 8 -13 20 -28 27 -28
12z"/>
<path d="M2840 3643 c0 -6 -8 -13 -17 -16 -17 -4 -17 -4 0 -12 24 -10 46 10
29 27 -8 8 -12 9 -12 1z"/>
<path d="M3707 3626 c-16 -12 -15 -13 8 -13 15 0 25 5 25 13 0 17 -10 17 -33
0z"/>
<path d="M2730 3619 c0 -5 5 -7 10 -4 6 3 10 8 10 11 0 2 -4 4 -10 4 -5 0 -10
-5 -10 -11z"/>
<path d="M2670 3601 c0 -6 4 -13 10 -16 6 -3 7 1 4 9 -7 18 -14 21 -14 7z"/>
<path d="M2816 3589 c3 -5 12 -9 21 -9 19 0 9 13 -12 16 -8 1 -13 -2 -9 -7z"/>
<path d="M2890 3575 c0 -14 5 -25 10 -25 6 0 10 2 10 4 0 2 3 11 6 19 3 8 -2
17 -10 20 -12 5 -16 0 -16 -18z"/>
<path d="M3747 3586 c-4 -10 1 -12 14 -9 23 6 24 9 5 16 -8 3 -17 0 -19 -7z"/>
<path d="M3710 3579 c0 -5 5 -7 10 -4 6 3 10 8 10 11 0 2 -4 4 -10 4 -5 0 -10
-5 -10 -11z"/>
<path d="M2780 3549 c-13 -24 3 -51 26 -42 8 3 25 -2 39 -11 14 -9 25 -12 25
-7 0 5 -9 12 -20 16 -20 6 -23 24 -5 37 5 4 16 1 24 -5 11 -10 13 -9 9 3 -3 8
-14 15 -25 15 -12 0 -25 3 -29 8 -13 13 -33 7 -44 -14z"/>
<path d="M4365 3560 c-3 -5 -1 -10 4 -10 6 0 11 5 11 10 0 6 -2 10 -4 10 -3 0
-8 -4 -11 -10z"/>
<path d="M3708 3553 c7 -3 16 -2 19 1 4 3 -2 6 -13 5 -11 0 -14 -3 -6 -6z"/>
<path d="M4270 3535 c0 -8 5 -15 10 -15 6 0 10 -11 10 -25 0 -14 -3 -25 -8
-25 -14 0 -38 36 -35 50 3 9 -2 7 -12 -5 -11 -14 -12 -21 -4 -24 21 -7 59 -44
59 -58 0 -8 4 -12 9 -9 5 4 8 18 6 34 -2 15 2 33 7 39 7 9 6 15 -6 19 -9 3
-16 12 -16 20 0 8 -4 14 -10 14 -5 0 -10 -7 -10 -15z"/>
<path d="M2706 3532 c-2 -4 4 -8 14 -8 10 0 16 4 14 8 -3 4 -9 8 -14 8 -5 0
-11 -4 -14 -8z"/>
<path d="M4476 3531 c-3 -5 1 -11 9 -15 15 -6 29 7 18 18 -9 9 -21 8 -27 -3z"/>
<path d="M2700 3465 c0 -8 9 -15 20 -15 11 0 20 2 20 5 0 2 -9 9 -20 15 -16 9
-20 8 -20 -5z"/>
<path d="M2798 3460 c-5 -24 24 -78 43 -83 21 -6 33 7 48 46 8 21 8 27 -4 27
-7 0 -20 6 -27 13 -18 18 -57 16 -60 -3z"/>
<path d="M4352 3472 c-15 -10 -7 -38 13 -46 22 -8 40 21 25 39 -14 17 -20 18
-38 7z"/>
<path d="M3250 3390 c0 -16 4 -30 8 -30 5 0 9 14 10 30 0 17 -4 30 -9 30 -5 0
-9 -13 -9 -30z"/>
<path d="M2790 3380 c0 -5 5 -10 10 -10 6 0 10 5 10 10 0 6 -4 10 -10 10 -5 0
-10 -4 -10 -10z"/>
<path d="M2914 3375 c3 -8 1 -15 -4 -15 -6 0 -10 -5 -10 -11 0 -8 5 -8 15 1
17 15 20 40 4 40 -6 0 -9 -7 -5 -15z"/>
<path d="M3040 3367 c-1 -20 -2 -20 -11 -4 -12 21 -65 23 -73 2 -6 -18 5 -20
22 -3 18 18 25 2 14 -31 -7 -19 -7 -33 -1 -36 5 -4 5 -13 -1 -25 -14 -26 -13
-29 10 -23 11 3 20 0 20 -6 0 -6 5 -11 11 -11 6 0 9 16 8 40 -2 21 1 43 6 47
4 5 5 2 0 -6 -6 -10 -4 -12 5 -6 10 6 9 11 -5 22 -18 12 -17 13 6 13 19 0 21
2 9 10 -10 6 -11 10 -2 10 17 0 15 17 -3 24 -11 4 -15 -1 -15 -17z"/>
<path d="M4380 3360 c0 -22 1 -23 24 -14 18 7 10 34 -10 34 -8 0 -14 -9 -14
-20z"/>
<path d="M2722 3359 c2 -6 8 -10 13 -10 5 0 11 4 13 10 2 6 -4 11 -13 11 -9 0
-15 -5 -13 -11z"/>
<path d="M3215 3340 c-4 -6 -11 -8 -17 -4 -6 4 -8 -3 -6 -17 3 -26 25 -34 48
-19 13 9 13 12 -2 24 -10 7 -15 16 -11 19 3 4 4 7 0 7 -3 0 -9 -5 -12 -10z"/>
<path d="M4314 3315 c-2 -22 1 -25 20 -19 17 5 19 4 9 -7 -30 -31 -11 -37 45
-13 33 14 35 17 20 28 -10 7 -15 16 -12 19 8 8 -18 3 -33 -6 -6 -4 -14 -1 -16
5 -4 9 -6 9 -6 -1 -1 -12 -4 -11 -13 2 -12 16 -13 15 -14 -8z"/>
<path d="M3280 3301 c0 -5 5 -13 10 -16 6 -3 10 -2 10 4 0 5 -4 13 -10 16 -5
3 -10 2 -10 -4z"/>
<path d="M3396 3293 c-3 -3 -3 -10 0 -14 7 -12 34 -11 34 0 0 11 -26 22 -34
14z"/>
<path d="M4500 3290 c0 -5 5 -10 11 -10 5 0 7 5 4 10 -3 6 -8 10 -11 10 -2 0
-4 -4 -4 -10z"/>
<path d="M2900 3280 c0 -5 5 -10 11 -10 5 0 7 5 4 10 -3 6 -8 10 -11 10 -2 0
-4 -4 -4 -10z"/>
<path d="M3050 3270 c0 -13 7 -20 19 -20 24 0 35 26 15 34 -26 10 -34 7 -34
-14z"/>
<path d="M2821 3264 c0 -11 3 -14 6 -6 3 7 2 16 -1 19 -3 4 -6 -2 -5 -13z"/>
<path d="M3151 3256 c-6 -7 -9 -20 -5 -29 6 -17 47 -31 52 -17 2 5 10 6 18 3
21 -8 17 9 -10 35 -28 26 -39 27 -55 8z"/>
<path d="M3250 3240 c0 -5 7 -10 15 -10 8 0 15 5 15 10 0 6 -7 10 -15 10 -8 0
-15 -4 -15 -10z"/>
<path d="M4355 3240 c3 -5 10 -10 16 -10 5 0 9 5 9 10 0 6 -7 10 -16 10 -8 0
-12 -4 -9 -10z"/>
<path d="M2600 3225 c0 -8 5 -15 10 -15 6 0 10 7 10 15 0 8 -4 15 -10 15 -5 0
-10 -7 -10 -15z"/>
<path d="M4711 3214 c0 -11 3 -14 6 -6 3 7 2 16 -1 19 -3 4 -6 -2 -5 -13z"/>
<path d="M3120 3210 c0 -5 5 -10 11 -10 5 0 7 5 4 10 -3 6 -8 10 -11 10 -2 0
-4 -4 -4 -10z"/>
<path d="M4971 3193 c0 -25 1 -26 9 -8 12 27 12 35 0 35 -5 0 -10 -12 -9 -27z"/>
<path d="M2926 3201 c-4 -5 -2 -12 3 -15 5 -4 12 -2 15 3 4 5 2 12 -3 15 -5 4
-12 2 -15 -3z"/>
<path d="M4370 3200 c0 -5 9 -10 20 -10 11 0 20 5 20 10 0 6 -9 10 -20 10 -11
0 -20 -4 -20 -10z"/>
<path d="M2540 3171 c0 -6 5 -13 10 -16 6 -3 10 1 10 9 0 9 -4 16 -10 16 -5 0
-10 -4 -10 -9z"/>
<path d="M3145 3170 c4 -6 11 -8 16 -5 14 9 11 15 -7 15 -8 0 -12 -5 -9 -10z"/>
<path d="M4484 3164 c3 -9 6 -18 6 -20 0 -2 4 -4 9 -4 6 0 9 9 8 20 -1 11 -8
20 -15 20 -9 0 -12 -6 -8 -16z"/>
<path d="M4806 3164 c-4 -10 -1 -14 6 -12 15 5 23 28 10 28 -5 0 -13 -7 -16
-16z"/>
<path d="M4350 3155 c0 -10 -5 -13 -12 -9 -10 6 -10 5 -1 -8 7 -8 10 -17 7
-21 -9 -8 15 -47 29 -47 32 1 56 77 26 81 -20 3 -24 5 -36 12 -9 5 -13 3 -13
-8z"/>
<path d="M2876 3151 c-3 -5 1 -11 9 -15 8 -3 15 -1 15 4 0 13 -18 22 -24 11z"/>
<path d="M3196 3138 c9 -31 12 -34 26 -20 9 9 9 12 0 12 -7 0 -12 7 -12 15 0
8 -5 15 -11 15 -6 0 -8 -9 -3 -22z"/>
<path d="M3070 3125 c-5 -14 -10 -33 -10 -41 0 -8 -4 -13 -9 -10 -5 4 -7 -3
-4 -14 5 -18 15 -24 34 -22 4 1 20 -3 36 -7 27 -8 31 -6 47 24 10 18 15 38 11
44 -10 18 -24 3 -18 -19 4 -14 0 -20 -10 -20 -17 0 -43 37 -39 56 1 6 -4 17
-13 24 -12 10 -16 8 -25 -15z"/>
<path d="M4650 3119 c0 -5 5 -7 10 -4 6 3 10 8 10 11 0 2 -4 4 -10 4 -5 0 -10
-5 -10 -11z"/>
<path d="M2965 3111 c-3 -5 -1 -13 5 -16 6 -4 8 -15 5 -24 -3 -10 1 -24 10
-31 13 -11 19 -11 32 3 13 13 14 19 4 31 -8 9 -17 13 -22 10 -5 -3 -9 4 -9 15
0 22 -14 28 -25 12z"/>
<path d="M4790 3106 c0 -9 5 -16 10 -16 6 0 10 4 10 9 0 6 -4 13 -10 16 -5 3
-10 -1 -10 -9z"/>
<path d="M4830 3111 c0 -5 7 -12 16 -15 14 -5 15 -4 4 9 -14 17 -20 19 -20 6z"/>
<path d="M4543 3094 c-8 -20 10 -36 30 -28 24 9 21 31 -4 37 -13 3 -22 0 -26
-9z"/>
<path d="M4604 3072 c-20 -17 -20 -17 7 -39 l27 -23 0 35 c0 43 -7 48 -34 27z"/>
<path d="M4510 3070 c0 -5 5 -10 11 -10 5 0 7 5 4 10 -3 6 -8 10 -11 10 -2 0
-4 -4 -4 -10z"/>
<path d="M2945 3060 c3 -5 8 -10 11 -10 2 0 4 5 4 10 0 6 -5 10 -11 10 -5 0
-7 -4 -4 -10z"/>
<path d="M2536 3051 c-4 -5 -2 -12 3 -15 5 -4 12 -2 15 3 4 5 2 12 -3 15 -5 4
-12 2 -15 -3z"/>
<path d="M2590 3035 c0 -8 5 -15 10 -15 6 0 10 7 10 15 0 8 -4 15 -10 15 -5 0
-10 -7 -10 -15z"/>
<path d="M3077 3024 c-4 -4 3 -15 15 -26 15 -12 25 -15 32 -8 7 7 4 15 -10 25
-22 16 -28 18 -37 9z"/>
<path d="M4600 3020 c0 -5 5 -10 11 -10 5 0 7 5 4 10 -3 6 -8 10 -11 10 -2 0
-4 -4 -4 -10z"/>
<path d="M4650 3020 c0 -5 5 -10 11 -10 5 0 7 5 4 10 -3 6 -8 10 -11 10 -2 0
-4 -4 -4 -10z"/>
<path d="M2872 3008 c-7 -7 -12 -17 -12 -22 1 -16 40 -60 47 -52 3 3 2 6 -2 6
-5 0 -1 6 10 13 13 10 16 21 11 40 -7 29 -33 36 -54 15z"/>
<path d="M4695 2990 c-3 -6 1 -7 9 -4 18 7 21 14 7 14 -6 0 -13 -4 -16 -10z"/>
<path d="M2950 2975 c0 -8 7 -15 16 -15 14 0 14 3 4 15 -7 8 -14 15 -16 15 -2
0 -4 -7 -4 -15z"/>
<path d="M3060 2969 c0 -5 5 -7 10 -4 6 3 10 8 10 11 0 2 -4 4 -10 4 -5 0 -10
-5 -10 -11z"/>
<path d="M3095 2951 c-3 -5 -1 -12 5 -16 5 -3 10 1 10 9 0 18 -6 21 -15 7z"/>
<path d="M4850 2950 c0 -5 5 -10 10 -10 6 0 10 5 10 10 0 6 -4 10 -10 10 -5 0
-10 -4 -10 -10z"/>
<path d="M3115 2920 c-3 -5 1 -10 9 -10 9 0 16 5 16 10 0 6 -4 10 -9 10 -6 0
-13 -4 -16 -10z"/>
<path d="M2911 2891 c-11 -19 -11 -25 0 -32 21 -13 34 7 22 33 l-10 23 -12
-24z"/>
<path d="M2950 2895 c0 -8 5 -15 10 -15 6 0 10 7 10 15 0 8 -4 15 -10 15 -5 0
-10 -7 -10 -15z"/>
<path d="M2705 2860 c-3 -5 -1 -10 4 -10 6 0 11 5 11 10 0 6 -2 10 -4 10 -3 0
-8 -4 -11 -10z"/>
<path d="M4790 2841 c0 -5 5 -13 10 -16 6 -3 10 -2 10 4 0 5 -4 13 -10 16 -5
3 -10 2 -10 -4z"/>
<path d="M4195 2810 c-3 -5 -1 -10 4 -10 6 0 11 5 11 10 0 6 -2 10 -4 10 -3 0
-8 -4 -11 -10z"/>
<path d="M2635 2790 c-3 -5 -1 -10 4 -10 6 0 11 5 11 10 0 6 -2 10 -4 10 -3 0
-8 -4 -11 -10z"/>
<path d="M4050 2790 c0 -5 5 -10 10 -10 6 0 10 5 10 10 0 6 -4 10 -10 10 -5 0
-10 -4 -10 -10z"/>
<path d="M4893 2774 c-7 -7 -9 -15 -5 -17 4 -3 13 1 19 9 7 7 9 15 5 17 -4 3
-13 -1 -19 -9z"/>
<path d="M4305 2760 c-3 -5 -1 -10 4 -10 6 0 11 5 11 10 0 6 -2 10 -4 10 -3 0
-8 -4 -11 -10z"/>
<path d="M2585 2740 c3 -5 10 -10 16 -10 5 0 9 5 9 10 0 6 -7 10 -16 10 -8 0
-12 -4 -9 -10z"/>
<path d="M4080 2740 c-9 -6 -10 -10 -3 -10 6 0 15 5 18 10 8 12 4 12 -15 0z"/>
<path d="M4402 2709 c2 -7 10 -15 17 -17 8 -3 12 1 9 9 -2 7 -10 15 -17 17 -8
3 -12 -1 -9 -9z"/>
<path d="M4047 2693 c-4 -3 -7 -11 -7 -17 0 -6 5 -5 12 2 6 6 9 14 7 17 -3 3
-9 2 -12 -2z"/>
<path d="M2690 2641 c0 -6 5 -13 10 -16 6 -3 10 1 10 9 0 9 -4 16 -10 16 -5 0
-10 -4 -10 -9z"/>
<path d="M4255 2590 c3 -5 8 -10 11 -10 2 0 4 5 4 10 0 6 -5 10 -11 10 -5 0
-7 -4 -4 -10z"/>
<path d="M4336 2583 c-6 -14 -5 -15 5 -6 7 7 10 15 7 18 -3 3 -9 -2 -12 -12z"/>
<path d="M4446 2588 c3 -5 10 -6 15 -3 13 9 11 12 -6 12 -8 0 -12 -4 -9 -9z"/>
<path d="M3084 2575 c-7 -17 4 -37 17 -30 5 4 9 -5 9 -18 0 -14 6 -27 14 -30
23 -9 27 5 9 25 -13 15 -14 21 -5 27 18 11 4 41 -19 41 -11 0 -22 -7 -25 -15z"/>
<path d="M4840 2580 c0 -5 5 -10 10 -10 6 0 10 5 10 10 0 6 -4 10 -10 10 -5 0
-10 -4 -10 -10z"/>
<path d="M2310 2570 c0 -5 5 -10 10 -10 6 0 10 5 10 10 0 6 -4 10 -10 10 -5 0
-10 -4 -10 -10z"/>
<path d="M3045 2572 c-16 -11 -15 -72 1 -72 16 0 26 15 16 24 -10 11 -9 30 1
37 5 4 5 9 0 12 -5 3 -13 3 -18 -1z"/>
<path d="M4625 2540 c-3 -5 1 -10 9 -10 9 0 16 5 16 10 0 6 -4 10 -9 10 -6 0
-13 -4 -16 -10z"/>
<path d="M2395 2520 c3 -5 8 -10 11 -10 2 0 4 5 4 10 0 6 -5 10 -11 10 -5 0
-7 -4 -4 -10z"/>
<path d="M3000 2520 c0 -5 5 -10 10 -10 6 0 10 5 10 10 0 6 -4 10 -10 10 -5 0
-10 -4 -10 -10z"/>
<path d="M2831 2504 c0 -11 3 -14 6 -6 3 7 2 16 -1 19 -3 4 -6 -2 -5 -13z"/>
<path d="M4607 2505 c-8 -19 13 -31 23 -14 9 14 4 29 -10 29 -4 0 -10 -7 -13
-15z"/>
<path d="M4735 2510 c-3 -5 -1 -10 4 -10 6 0 11 5 11 10 0 6 -2 10 -4 10 -3 0
-8 -4 -11 -10z"/>
<path d="M2939 2508 c-5 -25 -3 -34 6 -44 5 -6 16 -9 22 -7 7 3 13 -2 13 -12
0 -9 5 -13 11 -10 7 5 5 13 -6 25 -10 11 -14 24 -9 31 5 8 3 10 -6 4 -7 -4
-16 -2 -21 6 -5 8 -9 11 -10 7z"/>
<path d="M2995 2491 c-2 -2 3 -14 12 -28 13 -20 14 -26 4 -33 -9 -5 -10 -10
-2 -14 6 -4 11 -3 11 2 0 5 8 12 19 15 10 2 23 17 28 33 10 29 10 29 -29 29
-22 0 -41 -2 -43 -4z"/>
<path d="M2490 2480 c0 -5 5 -10 10 -10 6 0 10 5 10 10 0 6 -4 10 -10 10 -5 0
-10 -4 -10 -10z"/>
<path d="M3115 2461 c7 -23 -10 -38 -19 -16 -9 24 -26 17 -26 -11 0 -18 4 -25
14 -21 11 5 13 0 6 -23 -5 -16 -11 -35 -15 -42 -4 -7 0 -5 9 6 8 10 19 15 24
12 5 -3 18 10 28 29 10 19 23 35 28 35 6 0 5 -5 -2 -12 -17 -17 -15 -39 3 -32
8 4 22 1 30 -6 11 -9 19 -7 37 10 22 22 22 22 1 11 -33 -17 -45 -14 -38 9 9
27 -3 60 -21 60 -8 0 -14 -8 -14 -17 -1 -15 -3 -15 -19 5 -23 27 -34 28 -26 3z"/>
<path d="M2890 2425 c0 -14 4 -25 9 -25 4 0 6 11 3 25 -2 14 -6 25 -8 25 -2 0
-4 -11 -4 -25z"/>
<path d="M3264 2435 c-8 -20 5 -37 23 -31 8 3 23 1 34 -4 30 -17 23 6 -10 29
-35 25 -40 26 -47 6z"/>
<path d="M4205 2440 c3 -5 8 -10 11 -10 2 0 4 5 4 10 0 6 -5 10 -11 10 -5 0
-7 -4 -4 -10z"/>
<path d="M2665 2410 c-3 -5 -1 -10 4 -10 6 0 11 5 11 10 0 6 -2 10 -4 10 -3 0
-8 -4 -11 -10z"/>
<path d="M2990 2370 c0 -5 7 -7 15 -4 8 4 15 8 15 10 0 2 -7 4 -15 4 -8 0 -15
-4 -15 -10z"/>
<path d="M3282 2368 c-16 -16 -15 -38 1 -38 22 0 40 18 34 34 -8 19 -19 20
-35 4z"/>
<path d="M2905 2342 c-7 -7 7 -32 19 -32 6 0 17 9 24 20 11 18 10 20 -14 18
-14 -2 -27 -4 -29 -6z"/>
<path d="M3095 2330 c3 -5 10 -10 16 -10 5 0 9 5 9 10 0 6 -7 10 -16 10 -8 0
-12 -4 -9 -10z"/>
<path d="M2770 2296 c0 -17 14 -29 23 -20 8 8 -3 34 -14 34 -5 0 -9 -6 -9 -14z"/>
<path d="M3266 2294 c-9 -23 -7 -37 9 -58 29 -38 58 19 32 62 -11 17 -34 15
-41 -4z"/>
<path d="M2720 2270 c0 -5 5 -10 11 -10 5 0 7 5 4 10 -3 6 -8 10 -11 10 -2 0
-4 -4 -4 -10z"/>
<path d="M4465 2250 c3 -5 8 -10 11 -10 2 0 4 5 4 10 0 6 -5 10 -11 10 -5 0
-7 -4 -4 -10z"/>
<path d="M945 2238 c-11 -7 -45 -13 -75 -15 -121 -5 -179 -14 -260 -39 -25 -7
-57 -15 -72 -18 -60 -10 -105 -69 -99 -131 1 -16 15 -58 31 -92 16 -34 31 -86
34 -115 11 -96 16 -132 32 -218 9 -47 18 -103 20 -125 3 -22 9 -56 14 -75 5
-19 11 -64 15 -100 9 -95 15 -142 22 -165 4 -11 5 -56 4 -99 -1 -44 3 -94 9
-112 9 -26 8 -39 -4 -61 -19 -38 -12 -103 20 -172 24 -54 28 -70 38 -169 6
-50 20 -72 47 -72 28 0 38 30 43 124 3 54 10 94 20 107 9 14 46 32 98 49 86
27 283 111 328 138 74 45 108 69 138 96 17 16 32 26 33 20 1 -5 1 -48 0 -97
l-2 -87 46 -49 c25 -26 45 -53 45 -58 0 -13 33 -43 48 -43 6 0 23 11 39 24 15
12 39 26 53 29 14 3 66 16 115 29 75 21 112 24 229 24 136 -1 139 -1 157 -26
21 -29 27 -55 30 -142 2 -76 12 -98 44 -98 32 0 42 21 49 110 5 58 14 91 43
146 31 62 35 78 30 120 -4 39 -12 55 -40 80 -37 34 -68 38 -137 16 -62 -19
-506 -35 -544 -19 -18 7 -18 16 -12 120 3 61 9 150 13 197 10 112 10 480 1
600 -4 52 -10 138 -13 190 -8 125 -10 135 -43 165 -22 22 -34 25 -66 21 -44
-5 -84 -39 -91 -76 -10 -46 -4 -225 9 -310 15 -96 19 -180 19 -355 -1 -181 -2
-215 -11 -215 -4 0 -16 24 -26 53 -10 28 -30 74 -45 102 -32 61 -89 93 -184
103 l-66 7 59 70 c73 87 103 140 128 230 29 110 16 215 -35 276 -28 32 -93 68
-126 69 -10 0 -43 11 -73 25 -30 14 -56 25 -57 25 -1 0 -11 -6 -22 -12z m104
-238 c22 -11 23 -17 18 -67 -10 -93 -107 -233 -220 -317 -57 -42 -80 -46 -76
-13 2 12 -1 28 -5 36 -5 8 -10 33 -11 56 -1 23 -5 47 -9 53 -4 7 -10 55 -13
107 -7 115 0 126 85 145 31 7 62 13 67 15 27 7 144 -4 164 -15z m98 -648 c18
-11 62 -125 70 -178 5 -38 2 -49 -18 -71 -37 -40 -300 -165 -360 -171 -54 -5
-60 2 -32 44 17 27 19 75 11 269 l-3 80 70 17 c73 17 241 24 262 10z"/>
<path d="M2720 2239 c0 -5 5 -7 10 -4 6 3 10 8 10 11 0 2 -4 4 -10 4 -5 0 -10
-5 -10 -11z"/>
</g>
</svg>
