<?xml version="1.0" standalone="no"?>
<!DOCTYPE svg PUBLIC "-//W3C//DTD SVG 20010904//EN"
 "http://www.w3.org/TR/2001/REC-SVG-20010904/DTD/svg10.dtd">
<svg version="1.0" xmlns="http://www.w3.org/2000/svg"
 width="500.000000pt" height="500.000000pt" viewBox="0 0 500.000000 500.000000"
 preserveAspectRatio="xMidYMid meet">
<metadata>
Created by potrace 1.14, written by Peter Selinger 2001-2017
</metadata>
<g transform="translate(0.000000,500.000000) scale(0.100000,-0.100000)"
fill="#000000" stroke="none">
<path d="M86 3830 c-1 -3 -2 -477 -2 -1055 l1 -1050 360 -2 c269 -1 379 2 432
12 213 41 373 142 489 311 l49 71 0 -199 -1 -198 318 0 318 0 0 187 0 188 37
-57 c106 -158 261 -267 455 -320 116 -32 355 -32 470 0 233 64 422 220 511
422 l24 53 17 -44 c72 -183 212 -315 403 -378 95 -32 131 -39 238 -47 77 -6
80 -7 71 -29 -12 -32 -58 -37 -353 -39 -253 -1 -293 -3 -294 -16 0 -8 -2 -151
-2 -318 l-2 -303 395 4 c439 4 450 6 589 75 161 80 264 228 297 429 4 21 7
431 8 911 l1 872 -30 1 c-37 0 -121 6 -200 14 -129 13 -460 13 -535 0 -248
-43 -424 -155 -536 -345 -24 -41 -44 -78 -44 -82 0 -4 -5 -19 -10 -34 -10 -26
-11 -26 -46 42 -104 204 -278 344 -493 399 -99 26 -101 26 -216 30 -99 3 -138
0 -240 -20 -120 -23 -283 -109 -373 -198 -30 -29 -72 -80 -95 -115 l-42 -63
-3 448 -2 449 -315 0 c-211 0 -316 -3 -318 -10 -2 -6 -3 -206 -3 -444 1 -237
0 -432 -1 -432 -1 0 -18 24 -37 53 -123 185 -334 291 -598 302 -26 1 -50 4
-54 7 -3 4 -5 123 -5 265 l1 259 -316 0 c-173 0 -317 -3 -318 -6z m4199 -1312
c-1 -176 -1 -183 -20 -180 -38 7 -67 34 -90 85 -44 98 -17 217 59 262 22 13
42 22 45 20 4 -2 6 -86 6 -187z m-1416 158 c58 -31 89 -90 86 -168 -3 -104
-73 -169 -180 -169 -110 0 -177 70 -176 184 0 82 51 148 131 169 34 8 107 0
139 -16z m-2079 -12 c88 -75 76 -246 -22 -299 -20 -11 -39 -17 -42 -14 -4 4
-8 156 -7 287 1 44 4 52 20 52 11 0 33 -12 51 -26z"/>
</g>
</svg>
